<svg width="34" height="8" viewBox="0 0 34 8" fill="none" xmlns="http://www.w3.org/2000/svg">
<path d="M16.8282 0.879959C14.9695 0.879959 13.4626 2.27708 13.4626 4.00053C13.4626 5.72397 14.9695 7.12109 16.8282 7.12109C18.687 7.12109 20.1938 5.72397 20.1938 4.00053C20.1938 2.27708 18.687 0.879959 16.8282 0.879959Z" fill="#353535"/>
<path d="M30.2906 0.879959C28.4319 0.879959 26.925 2.27708 26.925 4.00053C26.925 5.72397 28.4319 7.12109 30.2906 7.12109C32.1494 7.12109 33.6562 5.72397 33.6562 4.00053C33.6562 2.27708 32.1494 0.879959 30.2906 0.879959Z" fill="#353535"/>
<path d="M3.36584 0.879959C1.50706 0.879959 0.000225067 2.27708 0.000225067 4.00053C0.000225067 5.72397 1.50706 7.12109 3.36584 7.12109C5.22461 7.12109 6.73145 5.72397 6.73145 4.00053C6.73145 2.27708 5.22461 0.879959 3.36584 0.879959Z" fill="#353535"/>
</svg>
