<svg width="18" height="18" viewBox="0 0 18 18" fill="none" xmlns="http://www.w3.org/2000/svg">
<path d="M18.75 7.49961H3.925L8.4625 2.04961C8.67467 1.79434 8.77675 1.46524 8.74628 1.13471C8.7158 0.804175 8.55527 0.499285 8.3 0.287112C8.04473 0.074939 7.71563 -0.0271384 7.3851 0.00333625C7.05456 0.0338109 6.74967 0.194341 6.5375 0.449612L0.2875 7.94961C0.245451 8.00927 0.207849 8.07194 0.175 8.13711C0.175 8.19961 0.175 8.23711 0.0875002 8.29961C0.0308421 8.44294 0.0011764 8.5955 0 8.74961C0.0011764 8.90372 0.0308421 9.05629 0.0875002 9.19961C0.0875002 9.26211 0.0874998 9.29961 0.175 9.36211C0.207849 9.42729 0.245451 9.48996 0.2875 9.54961L6.5375 17.0496C6.65503 17.1907 6.8022 17.3042 6.96856 17.382C7.13491 17.4597 7.31636 17.4999 7.5 17.4996C7.79207 17.5002 8.07511 17.3985 8.3 17.2121C8.42657 17.1072 8.5312 16.9783 8.60789 16.8329C8.68458 16.6874 8.73183 16.5283 8.74692 16.3646C8.76202 16.2009 8.74466 16.0358 8.69586 15.8788C8.64705 15.7218 8.56775 15.5759 8.4625 15.4496L3.925 9.99961H18.75C19.0815 9.99961 19.3995 9.86792 19.6339 9.6335C19.8683 9.39907 20 9.08113 20 8.74961C20 8.41809 19.8683 8.10015 19.6339 7.86573C19.3995 7.63131 19.0815 7.49961 18.75 7.49961Z" fill="#002855"/>
</svg>
