<svg width="16" height="15" viewBox="0 0 16 15" fill="none" xmlns="http://www.w3.org/2000/svg">
<g clip-path="url(#clip0_54_9085)">
<path d="M14.475 15H1.525C0.68125 15 0 14.3613 0 13.5703V1.42969C0 0.638672 0.68125 0 1.525 0H14.4781C15.3187 0 16 0.638672 16 1.42969V13.5732C16 14.3613 15.3188 15 14.475 15Z" fill="#FF884B"/>
<path opacity="0.2" d="M14.9094 1.05762C14.8031 0.949219 14.65 0.878906 14.4781 0.878906H1.525C1.2 0.878906 0.9375 1.125 0.9375 1.42969V13.5732C0.9375 13.7344 1.0125 13.8779 1.12812 13.9775L2.21875 15H14.475C15.3156 15 16 14.3613 16 13.5703V2.08008L14.9094 1.05762Z" fill="black"/>
<path d="M1.525 14.1211C1.20312 14.1211 0.9375 13.875 0.9375 13.5703V1.42969C0.9375 1.125 1.2 0.878906 1.525 0.878906H14.4781C14.8 0.878906 15.0656 1.125 15.0656 1.42969V13.5732C15.0656 13.875 14.8031 14.124 14.4781 14.124H1.525V14.1211Z" fill="#FFB946"/>
<path d="M6.42499 6.16113H6.64999V6.30176H6.42499V6.16113Z" fill="white"/>
<path d="M6.73431 6.81738H6.95932V6.95801H6.73431V6.81738Z" fill="white"/>
<path d="M6.42499 6.60059H6.64999V6.74121H6.42499V6.60059Z" fill="white"/>
<path d="M6.42499 7.74023H6.64999V7.88086H6.42499V7.74023Z" fill="white"/>
<path d="M6.73431 6.60059H6.95932V6.74121H6.73431V6.60059Z" fill="white"/>
<path d="M6.42499 6.38086H6.64999V6.52149H6.42499V6.38086Z" fill="white"/>
<path d="M6.42499 7.95996H6.64999V8.10059H6.42499V7.95996Z" fill="white"/>
<path d="M6.42499 8.17969H6.64999V8.32031H6.42499V8.17969Z" fill="white"/>
<path d="M6.73431 6.16113H6.95932V6.30176H6.73431V6.16113Z" fill="white"/>
<path d="M6.73431 6.38086H6.95932V6.52149H6.73431V6.38086Z" fill="white"/>
<path d="M6.42499 6.81738H6.64999V6.95801H6.42499V6.81738Z" fill="white"/>
<path d="M6.42499 5.45801H6.64999V5.59863H6.42499V5.45801Z" fill="white"/>
<path d="M6.42499 5.01855H6.64999V5.15918H6.42499V5.01855Z" fill="white"/>
<path d="M6.42499 5.23828H6.64999V5.37891H6.42499V5.23828Z" fill="white"/>
<path d="M9.34998 10.2451H9.57498V10.3857H9.34998V10.2451Z" fill="white"/>
<path d="M9.34998 10.4648H9.57498V10.6055H9.34998V10.4648Z" fill="white"/>
<path d="M6.42499 4.79883H6.64999V4.93945H6.42499V4.79883Z" fill="white"/>
<path d="M6.73431 5.23828H6.95932V5.37891H6.73431V5.23828Z" fill="white"/>
<path d="M6.73431 5.01855H6.95932V5.15918H6.73431V5.01855Z" fill="white"/>
<path d="M6.73431 5.45801H6.95932V5.59863H6.73431V5.45801Z" fill="white"/>
<path d="M6.73431 4.79883H6.95932V4.93945H6.73431V4.79883Z" fill="white"/>
<path d="M6.73431 10.6816H6.95932V10.8223H6.73431V10.6816Z" fill="white"/>
<path d="M6.42499 10.4648H6.64999V10.6055H6.42499V10.4648Z" fill="white"/>
<path d="M6.42499 10.2451H6.64999V10.3857H6.42499V10.2451Z" fill="white"/>
<path d="M6.42499 10.6816H6.64999V10.8223H6.42499V10.6816Z" fill="white"/>
<path d="M6.73431 9.10254H6.95932V9.24316H6.73431V9.10254Z" fill="white"/>
<path d="M6.42499 10.9014H6.64999V11.042H6.42499V10.9014Z" fill="white"/>
<path d="M6.73431 8.88281H6.95932V9.02344H6.73431V8.88281Z" fill="white"/>
<path d="M6.73431 10.4648H6.95932V10.6055H6.73431V10.4648Z" fill="white"/>
<path d="M6.73431 10.2451H6.95932V10.3857H6.73431V10.2451Z" fill="white"/>
<path d="M9.34998 10.6816H9.57498V10.8223H9.34998V10.6816Z" fill="white"/>
<path d="M6.73431 10.9014H6.95932V11.042H6.73431V10.9014Z" fill="white"/>
<path d="M6.42499 8.88281H6.64999V9.02344H6.42499V8.88281Z" fill="white"/>
<path d="M6.73431 7.95996H6.95932V8.10059H6.73431V7.95996Z" fill="white"/>
<path d="M6.73431 7.52344H6.95932V7.66406H6.73431V7.52344Z" fill="white"/>
<path d="M6.73431 8.17969H6.95932V8.32031H6.73431V8.17969Z" fill="white"/>
<path d="M6.42499 9.54199H6.64999V9.68262H6.42499V9.54199Z" fill="white"/>
<path d="M6.73431 9.32227H6.95932V9.46289H6.73431V9.32227Z" fill="white"/>
<path d="M6.73431 9.54199H6.95932V9.68262H6.73431V9.54199Z" fill="white"/>
<path d="M6.42499 9.32227H6.64999V9.46289H6.42499V9.32227Z" fill="white"/>
<path d="M6.42499 7.52344H6.64999V7.66406H6.42499V7.52344Z" fill="white"/>
<path d="M6.42499 9.10254H6.64999V9.24316H6.42499V9.10254Z" fill="white"/>
<path d="M6.73431 7.74023H6.95932V7.88086H6.73431V7.74023Z" fill="white"/>
<path d="M9.34998 6.81738H9.57498V6.95801H9.34998V6.81738Z" fill="white"/>
<path d="M9.34998 6.38086H9.57498V6.52149H9.34998V6.38086Z" fill="white"/>
<path d="M9.34998 6.60059H9.57498V6.74121H9.34998V6.60059Z" fill="white"/>
<path d="M9.0437 6.38086H9.2687V6.52149H9.0437V6.38086Z" fill="white"/>
<path d="M9.0437 6.16113H9.2687V6.30176H9.0437V6.16113Z" fill="white"/>
<path d="M9.34998 10.9014H9.57498V11.042H9.34998V10.9014Z" fill="white"/>
<path d="M9.0437 7.74023H9.2687V7.88086H9.0437V7.74023Z" fill="white"/>
<path d="M9.0437 6.60059H9.2687V6.74121H9.0437V6.60059Z" fill="white"/>
<path d="M9.0437 8.17969H9.2687V8.32031H9.0437V8.17969Z" fill="white"/>
<path d="M9.34998 6.16113H9.57498V6.30176H9.34998V6.16113Z" fill="white"/>
<path d="M9.34998 5.01855H9.57498V5.15918H9.34998V5.01855Z" fill="white"/>
<path d="M9.0437 6.81738H9.2687V6.95801H9.0437V6.81738Z" fill="white"/>
<path d="M9.0437 5.01855H9.2687V5.15918H9.0437V5.01855Z" fill="white"/>
<path d="M9.0437 4.79883H9.2687V4.93945H9.0437V4.79883Z" fill="white"/>
<path d="M9.0437 5.45801H9.2687V5.59863H9.0437V5.45801Z" fill="white"/>
<path d="M5.21246 2.37305V11.8389H10.7843V4.42969L5.21246 2.37305ZM7.12809 10.1924H7.06871V11.124H6.31559V10.1924H6.25621V10.0986H7.13121V10.1924H7.12809ZM7.12809 8.83008H7.06871V9.76172H6.31559V8.83008H6.25621V8.73633H7.13121V8.83008H7.12809ZM7.12809 7.4707H7.06871V8.40234H6.31559V7.4707H6.25621V7.37695H7.13121V7.4707H7.12809ZM7.12809 6.1084H7.06871V7.04004H6.31559V6.1084H6.25621V6.01465H7.13121V6.1084H7.12809ZM7.12809 4.74609H7.06871V5.67773H6.31559V4.74609H6.25621V4.65234H7.13121V4.74609H7.12809ZM9.74371 10.1924H9.68434V11.124H8.93121V10.1924H8.87184V10.0986H9.74684V10.1924H9.74371ZM9.74371 8.83008H9.68434V9.76172H8.93121V8.83008H8.87184V8.73633H9.74684V8.83008H9.74371ZM9.74371 7.4707H9.68434V8.40234H8.93121V7.4707H8.87184V7.37695H9.74684V7.4707H9.74371ZM9.74371 6.1084H9.68434V7.04004H8.93121V6.1084H8.87184V6.01465H9.74684V6.1084H9.74371ZM9.74371 4.74609H9.68434V5.67773H8.93121V4.74609H8.87184V4.65234H9.74684V4.74609H9.74371Z" fill="white"/>
<path d="M9.0437 5.23828H9.2687V5.37891H9.0437V5.23828Z" fill="white"/>
<path d="M9.34998 5.45801H9.57498V5.59863H9.34998V5.45801Z" fill="white"/>
<path d="M9.34998 4.79883H9.57498V4.93945H9.34998V4.79883Z" fill="white"/>
<path d="M9.0437 7.52344H9.2687V7.66406H9.0437V7.52344Z" fill="white"/>
<path d="M9.34998 5.23828H9.57498V5.37891H9.34998V5.23828Z" fill="white"/>
<path d="M9.0437 7.95996H9.2687V8.10059H9.0437V7.95996Z" fill="white"/>
<path d="M9.0437 10.4648H9.2687V10.6055H9.0437V10.4648Z" fill="white"/>
<path d="M9.0437 9.32227H9.2687V9.46289H9.0437V9.32227Z" fill="white"/>
<path d="M9.34998 9.54199H9.57498V9.68262H9.34998V9.54199Z" fill="white"/>
<path d="M9.0437 10.6816H9.2687V10.8223H9.0437V10.6816Z" fill="white"/>
<path d="M9.0437 8.88281H9.2687V9.02344H9.0437V8.88281Z" fill="white"/>
<path d="M9.0437 10.9014H9.2687V11.042H9.0437V10.9014Z" fill="white"/>
<path d="M9.34998 9.32227H9.57498V9.46289H9.34998V9.32227Z" fill="white"/>
<path d="M9.34998 8.88281H9.57498V9.02344H9.34998V8.88281Z" fill="white"/>
<path d="M9.34998 9.10254H9.57498V9.24316H9.34998V9.10254Z" fill="white"/>
<path d="M9.0437 9.10254H9.2687V9.24316H9.0437V9.10254Z" fill="white"/>
<path d="M9.0437 10.2451H9.2687V10.3857H9.0437V10.2451Z" fill="white"/>
<path d="M9.34998 7.74023H9.57498V7.88086H9.34998V7.74023Z" fill="white"/>
<path d="M9.34998 7.95996H9.57498V8.10059H9.34998V7.95996Z" fill="white"/>
<path d="M9.34998 8.17969H9.57498V8.32031H9.34998V8.17969Z" fill="white"/>
<path d="M9.0437 9.54199H9.2687V9.68262H9.0437V9.54199Z" fill="white"/>
<path d="M9.34998 7.52344H9.57498V7.66406H9.34998V7.52344Z" fill="white"/>
<path d="M4.9281 11.9941H11.075V12.627H4.9281V11.9941Z" fill="white"/>
</g>
<defs>
<clipPath id="clip0_54_9085">
<rect width="16" height="15" fill="white"/>
</clipPath>
</defs>
</svg>
