<svg width="122" height="122" viewBox="0 0 122 122" fill="none" xmlns="http://www.w3.org/2000/svg">
<g opacity="0.03">
<path d="M5.97131 39.6736C5.7842 39.6736 5.59416 39.6385 5.40997 39.5596L0.901664 37.6855C0.156127 37.3756 -0.197637 36.519 0.112272 35.7763C0.422182 35.0279 1.28174 34.6741 2.02143 34.9869L6.53266 36.8639C7.2782 37.1739 7.63196 38.0276 7.31913 38.7731C7.08816 39.3345 6.54435 39.6736 5.97131 39.6736Z" fill="#13132A"/>
</g>
<path d="M61.0035 103.672C84.5713 103.672 103.678 84.563 103.678 60.9953C103.678 37.4275 84.5713 18.3242 61.0035 18.3242C37.4358 18.3242 18.3296 37.4275 18.3296 60.9953C18.3296 84.563 37.4358 103.672 61.0035 103.672Z" fill="#13132A"/>
<path d="M56.5976 80.0909L41.9792 63.3879C39.8537 60.9584 40.1022 57.2628 42.5318 55.1344C44.9643 53.006 48.6569 53.2545 50.7854 55.687L56.6327 62.3734L74.1572 42.51C76.2944 40.0892 79.9929 39.8611 82.4137 41.9954C84.8345 44.1326 85.0654 47.8281 82.9282 50.2489L56.5976 80.0909Z" fill="#00DD9D"/>
<path d="M85.662 121.998C85.0919 121.998 84.5452 121.658 84.3113 121.097L82.4343 116.586C82.1273 115.84 82.4781 114.987 83.2237 114.674C83.9751 114.376 84.8259 114.718 85.1358 115.463L87.0128 119.974C87.3197 120.72 86.9689 121.577 86.2234 121.889C86.0392 121.962 85.8491 121.998 85.662 121.998Z" fill="#13132A"/>
<g opacity="0.66667">
<path d="M100.921 102.383C100.546 102.383 100.172 102.24 99.8857 101.956L96.8626 98.9302C96.2925 98.3601 96.2925 97.4362 96.8626 96.8631C97.4357 96.293 98.3596 96.293 98.9297 96.8631L101.956 99.8862C102.526 100.459 102.526 101.383 101.956 101.956C101.669 102.24 101.295 102.383 100.921 102.383Z" fill="#13132A"/>
</g>
<path d="M120.535 87.1251C120.348 87.1251 120.158 87.0871 119.974 87.014L115.462 85.137C114.717 84.8271 114.366 83.9734 114.673 83.2249C114.986 82.4794 115.84 82.1373 116.588 82.4355L121.099 84.3125C121.845 84.6253 122.196 85.479 121.889 86.2246C121.655 86.7859 121.105 87.1251 120.535 87.1251Z" fill="#13132A"/>
<g opacity="0.66667">
<path d="M117.454 62.4608H113.185C112.379 62.4608 111.724 61.8059 111.724 60.9989C111.724 60.192 112.379 59.5371 113.185 59.5371H117.454C118.261 59.5371 118.916 60.192 118.916 60.9989C118.916 61.8059 118.261 62.4608 117.454 62.4608Z" fill="#13132A"/>
</g>
<g opacity="0.5">
<path d="M116.027 39.6756C115.457 39.6756 114.907 39.3365 114.673 38.7751C114.366 38.0296 114.717 37.173 115.462 36.8601L119.974 34.9831C120.722 34.682 121.576 35.0299 121.889 35.7784C122.196 36.521 121.845 37.3776 121.099 37.6875L116.588 39.5645C116.404 39.6405 116.214 39.6756 116.027 39.6756Z" fill="#13132A"/>
</g>
<path d="M97.8976 25.5669C97.5234 25.5669 97.1492 25.4207 96.8626 25.1371C96.2925 24.564 96.2925 23.6431 96.8626 23.07L99.8886 20.047C100.459 19.4739 101.383 19.4739 101.956 20.047C102.526 20.6171 102.526 21.5439 101.956 22.114L98.9326 25.1371C98.6461 25.4207 98.2719 25.5669 97.8976 25.5669Z" fill="#13132A"/>
<path d="M83.788 7.43396C83.6008 7.43396 83.4108 7.39887 83.2266 7.31993C82.4811 7.01003 82.1302 6.15631 82.4372 5.41078L84.3142 0.902468C84.6241 0.151084 85.4749 -0.196833 86.2263 0.113076C86.9718 0.422985 87.3227 1.27962 87.0157 2.02224L85.1387 6.53347C84.9048 7.09481 84.3581 7.43396 83.788 7.43396Z" fill="#13132A"/>
<path d="M61.0009 10.2723C60.194 10.2723 59.5391 9.61742 59.5391 8.81048V4.54192C59.5391 3.73498 60.194 3.08008 61.0009 3.08008C61.8078 3.08008 62.4627 3.73498 62.4627 4.54192V8.81048C62.4627 9.61742 61.8078 10.2723 61.0009 10.2723Z" fill="#13132A"/>
<g opacity="0.66667">
<path d="M38.2111 7.43432C37.6381 7.43432 37.0943 7.09517 36.8633 6.53383L34.9863 2.0226C34.6764 1.27999 35.0331 0.423352 35.7787 0.113443C36.5213 -0.193543 37.3779 0.154374 37.6878 0.899911L39.559 5.41114C39.8718 6.15668 39.518 7.01039 38.7725 7.3203C38.5883 7.39924 38.3983 7.43432 38.2111 7.43432Z" fill="#13132A"/>
</g>
<path d="M24.1011 25.5669C23.7269 25.5669 23.3527 25.4207 23.0661 25.1371L20.046 22.114C19.473 21.5439 19.473 20.6171 20.046 20.047C20.6161 19.4739 21.5429 19.4739 22.113 20.047L25.1361 23.07C25.7062 23.6431 25.7062 24.564 25.1361 25.1371C24.8496 25.4207 24.4754 25.5669 24.1011 25.5669Z" fill="#13132A"/>
<g opacity="0.515">
<path d="M5.97131 39.6736C5.7842 39.6736 5.59416 39.6385 5.40997 39.5596L0.901664 37.6855C0.156127 37.3756 -0.197637 36.519 0.112272 35.7763C0.422182 35.0279 1.28174 34.6741 2.02143 34.9869L6.53266 36.8639C7.2782 37.1739 7.63196 38.0276 7.31913 38.7731C7.08816 39.3345 6.54435 39.6736 5.97131 39.6736Z" fill="#13132A"/>
</g>
<path d="M8.81585 62.4608H4.54729C3.74035 62.4608 3.08545 61.8059 3.08545 60.9989C3.08545 60.192 3.74035 59.5371 4.54729 59.5371H8.81585C9.62278 59.5371 10.2777 60.192 10.2777 60.9989C10.2777 61.8059 9.62278 62.4608 8.81585 62.4608Z" fill="#13132A"/>
<g opacity="0.5">
<path d="M1.46322 87.1245C0.890184 87.1245 0.346381 86.7853 0.11541 86.224C-0.197423 85.4814 0.156342 84.6218 0.901879 84.309L5.41311 82.432C6.1528 82.1308 7.01236 82.4817 7.32227 83.2243C7.63218 83.9698 7.27841 84.8265 6.53287 85.1364L2.02457 87.0134C1.84038 87.0865 1.65034 87.1245 1.46322 87.1245Z" fill="#13132A"/>
</g>
<path d="M21.0807 102.383C20.7065 102.383 20.3323 102.24 20.0458 101.956C19.4756 101.383 19.4756 100.459 20.0458 99.8862L23.0688 96.8631C23.6389 96.293 24.5658 96.293 25.1359 96.8631C25.7089 97.4362 25.7089 98.3601 25.1359 98.9302L22.1157 101.956C21.8292 102.24 21.455 102.383 21.0807 102.383Z" fill="#13132A"/>
<g opacity="0.66667">
<path d="M35.3337 118.098C34.9594 118.098 34.5852 117.955 34.2987 117.671C33.7286 117.098 33.7286 116.174 34.2987 115.601L37.3218 112.578C37.8919 112.008 38.8187 112.008 39.3888 112.578C39.9618 113.151 39.9618 114.075 39.3888 114.645L36.3686 117.671C36.0821 117.955 35.7079 118.098 35.3337 118.098Z" fill="#13132A"/>
</g>
<path d="M61.0035 103.672C84.5713 103.672 103.678 84.563 103.678 60.9953C103.678 37.4275 84.5713 18.3242 61.0035 18.3242C37.4358 18.3242 18.3296 37.4275 18.3296 60.9953C18.3296 84.563 37.4358 103.672 61.0035 103.672Z" fill="#13132A"/>
<path d="M56.5976 80.0909L41.9792 63.3879C39.8537 60.9584 40.1022 57.2628 42.5318 55.1344C44.9643 53.006 48.6569 53.2545 50.7854 55.687L56.6327 62.3734L74.1572 42.51C76.2944 40.0892 79.9929 39.8611 82.4137 41.9954C84.8345 44.1326 85.0654 47.8281 82.9282 50.2489L56.5976 80.0909Z" fill="#00DD9D"/>
</svg>
