<svg width="25" height="23" viewBox="0 0 25 23" fill="none" xmlns="http://www.w3.org/2000/svg">
<path d="M12.5 0C10.0277 0 7.61099 0.674463 5.55538 1.9381C3.49976 3.20174 1.89761 4.99779 0.951511 7.09914C0.00541606 9.20049 -0.242126 11.5128 0.24019 13.7435C0.722505 15.9743 1.91301 18.0234 3.66117 19.6317C5.40933 21.24 7.63661 22.3353 10.0614 22.779C12.4861 23.2228 14.9995 22.995 17.2835 22.1246C19.5676 21.2542 21.5199 19.7802 22.8934 17.8891C24.2669 15.9979 25 13.7745 25 11.5C25 8.45001 23.683 5.52494 21.3388 3.36827C18.9946 1.2116 15.8152 0 12.5 0ZM17.0288 10.3588C16.9395 10.4418 16.8331 10.5076 16.7159 10.5525C16.5988 10.5974 16.4731 10.6205 16.3462 10.6205C16.2192 10.6205 16.0935 10.5974 15.9764 10.5525C15.8592 10.5076 15.7529 10.4418 15.6635 10.3588L13.4615 8.32423V16.8077C13.4615 17.0423 13.3602 17.2673 13.1799 17.4332C12.9996 17.5991 12.755 17.6923 12.5 17.6923C12.245 17.6923 12.0004 17.5991 11.8201 17.4332C11.6398 17.2673 11.5385 17.0423 11.5385 16.8077V8.32423L9.33654 10.3588C9.15548 10.5254 8.90991 10.619 8.65385 10.619C8.39779 10.619 8.15222 10.5254 7.97116 10.3588C7.7901 10.1923 7.68838 9.96634 7.68838 9.73077C7.68838 9.49519 7.7901 9.26927 7.97116 9.10269L11.8173 5.56423C11.9088 5.48369 12.0166 5.42056 12.1346 5.37846C12.3687 5.28998 12.6313 5.28998 12.8654 5.37846C12.9834 5.42056 13.0912 5.48369 13.1827 5.56423L17.0288 9.10269C17.119 9.18493 17.1905 9.28277 17.2393 9.39056C17.2881 9.49836 17.3133 9.61399 17.3133 9.73077C17.3133 9.84755 17.2881 9.96317 17.2393 10.071C17.1905 10.1788 17.119 10.2766 17.0288 10.3588Z" fill="#2ED47A"/>
</svg>
