<svg width="74" height="23" viewBox="0 0 74 23" fill="none" xmlns="http://www.w3.org/2000/svg">
<path d="M35.494 18V5.31H37.366V10.782H44.494V5.31H46.366V18H44.494V12.348H37.366V18H35.494ZM53.3776 18.162C51.9136 18.162 50.7616 17.748 49.9216 16.92C49.0816 16.092 48.6616 14.946 48.6616 13.482C48.6616 12.534 48.8416 11.706 49.2016 10.998C49.5736 10.29 50.0836 9.744 50.7316 9.36C51.3916 8.964 52.1536 8.766 53.0176 8.766C53.8696 8.766 54.5836 8.946 55.1596 9.306C55.7356 9.666 56.1736 10.176 56.4736 10.836C56.7736 11.484 56.9236 12.252 56.9236 13.14V13.716H50.0836V12.672H55.6816L55.3756 12.906C55.3756 12.006 55.1716 11.31 54.7636 10.818C54.3676 10.314 53.7916 10.062 53.0356 10.062C52.1956 10.062 51.5476 10.356 51.0916 10.944C50.6356 11.52 50.4076 12.318 50.4076 13.338V13.518C50.4076 14.586 50.6656 15.39 51.1816 15.93C51.7096 16.47 52.4536 16.74 53.4136 16.74C53.9416 16.74 54.4336 16.668 54.8896 16.524C55.3576 16.368 55.8016 16.116 56.2216 15.768L56.8156 17.01C56.3956 17.382 55.8856 17.67 55.2856 17.874C54.6856 18.066 54.0496 18.162 53.3776 18.162ZM59.0097 18V4.752H60.8277V18H59.0097ZM63.4922 21.888V11.106C63.4922 10.758 63.4742 10.404 63.4382 10.044C63.4142 9.672 63.3842 9.3 63.3482 8.928H65.1122L65.2922 10.98H65.0942C65.2862 10.296 65.6702 9.756 66.2462 9.36C66.8342 8.964 67.5302 8.766 68.3342 8.766C69.1382 8.766 69.8402 8.958 70.4402 9.342C71.0402 9.714 71.5022 10.248 71.8262 10.944C72.1622 11.64 72.3302 12.48 72.3302 13.464C72.3302 14.436 72.1622 15.276 71.8262 15.984C71.5022 16.692 71.0402 17.232 70.4402 17.604C69.8402 17.976 69.1382 18.162 68.3342 18.162C67.5422 18.162 66.8522 17.97 66.2642 17.586C65.6882 17.19 65.3042 16.656 65.1122 15.984H65.3102V21.888H63.4922ZM67.8842 16.74C68.6762 16.74 69.3062 16.464 69.7742 15.912C70.2542 15.36 70.4942 14.544 70.4942 13.464C70.4942 12.384 70.2542 11.574 69.7742 11.034C69.3062 10.482 68.6762 10.206 67.8842 10.206C67.0922 10.206 66.4562 10.482 65.9762 11.034C65.5082 11.574 65.2742 12.384 65.2742 13.464C65.2742 14.544 65.5082 15.36 65.9762 15.912C66.4562 16.464 67.0922 16.74 67.8842 16.74Z" fill="white"/>
<path d="M8.8255 14.6255C8.78465 14.6706 8.74658 14.7182 8.7115 14.768C8.67555 14.821 8.6468 14.8785 8.626 14.939C8.59861 14.9928 8.5794 15.0505 8.569 15.11C8.56434 15.1732 8.56434 15.2367 8.569 15.3C8.56579 15.4246 8.59182 15.5483 8.645 15.661C8.68767 15.7789 8.75574 15.886 8.84439 15.9746C8.93305 16.0633 9.04011 16.1313 9.158 16.174C9.27172 16.2243 9.39468 16.2502 9.519 16.2502C9.64333 16.2502 9.76629 16.2243 9.88 16.174C9.99789 16.1313 10.105 16.0633 10.1936 15.9746C10.2823 15.886 10.3503 15.7789 10.393 15.661C10.4352 15.5455 10.4545 15.4229 10.45 15.3C10.4507 15.175 10.4268 15.051 10.3795 14.9353C10.3322 14.8195 10.2625 14.7143 10.1745 14.6255C10.0862 14.5365 9.98112 14.4658 9.86535 14.4176C9.74958 14.3693 9.62541 14.3445 9.5 14.3445C9.37459 14.3445 9.25042 14.3693 9.13465 14.4176C9.01889 14.4658 8.91382 14.5365 8.8255 14.6255ZM9.5 2C7.62108 2 5.78435 2.55717 4.22209 3.60104C2.65982 4.64491 1.44218 6.12861 0.723149 7.86451C0.0041162 9.6004 -0.184015 11.5105 0.182544 13.3534C0.549104 15.1962 1.45389 16.8889 2.78249 18.2175C4.11109 19.5461 5.80383 20.4509 7.64665 20.8175C9.48946 21.184 11.3996 20.9959 13.1355 20.2769C14.8714 19.5578 16.3551 18.3402 17.399 16.7779C18.4428 15.2156 19 13.3789 19 11.5C19 10.2524 18.7543 9.0171 18.2769 7.86451C17.7994 6.71191 17.0997 5.66464 16.2175 4.78248C15.3354 3.90033 14.2881 3.20056 13.1355 2.72314C11.9829 2.24572 10.7476 2 9.5 2ZM9.5 19.1C7.99686 19.1 6.52748 18.6543 5.27767 17.8192C4.02786 16.9841 3.05375 15.7971 2.47852 14.4084C1.90329 13.0197 1.75279 11.4916 2.04604 10.0173C2.33928 8.54306 3.06311 7.18887 4.12599 6.12599C5.18887 5.06311 6.54306 4.33928 8.01732 4.04603C9.49157 3.75278 11.0197 3.90329 12.4084 4.47852C13.7971 5.05374 14.9841 6.02785 15.8192 7.27766C16.6543 8.52748 17.1 9.99686 17.1 11.5C17.1 13.5156 16.2993 15.4487 14.874 16.874C13.4487 18.2993 11.5156 19.1 9.5 19.1ZM9.5 6.75C8.99941 6.74968 8.50757 6.88121 8.07397 7.13137C7.64036 7.38152 7.2803 7.74148 7.03 8.175C6.96127 8.28313 6.91511 8.40404 6.89432 8.53047C6.87352 8.65689 6.87852 8.78622 6.909 8.91067C6.93948 9.03511 6.99482 9.15211 7.07169 9.25461C7.14856 9.35712 7.24537 9.44301 7.3563 9.50713C7.46723 9.57125 7.58998 9.61227 7.71717 9.62772C7.84436 9.64317 7.97336 9.63273 8.09641 9.59703C8.21947 9.56133 8.33402 9.50111 8.4332 9.41999C8.53237 9.33887 8.61411 9.23853 8.6735 9.125C8.7572 8.98002 8.87772 8.85974 9.02286 8.77633C9.168 8.69291 9.3326 8.64933 9.5 8.65C9.75196 8.65 9.99359 8.75009 10.1718 8.92825C10.3499 9.10641 10.45 9.34804 10.45 9.6C10.45 9.85195 10.3499 10.0936 10.1718 10.2717C9.99359 10.4499 9.75196 10.55 9.5 10.55C9.24805 10.55 9.00641 10.6501 8.82825 10.8282C8.65009 11.0064 8.55 11.248 8.55 11.5V12.45C8.55 12.702 8.65009 12.9436 8.82825 13.1217C9.00641 13.2999 9.24805 13.4 9.5 13.4C9.75196 13.4 9.99359 13.2999 10.1718 13.1217C10.3499 12.9436 10.45 12.702 10.45 12.45V12.279C11.0783 12.051 11.6065 11.6095 11.9422 11.0315C12.278 10.4536 12.3999 9.77603 12.2867 9.11729C12.1735 8.45856 11.8324 7.86057 11.323 7.42784C10.8136 6.99511 10.1684 6.75518 9.5 6.75Z" fill="white"/>
</svg>
