<svg width="200" height="66" viewBox="0 0 200 66" fill="none" xmlns="http://www.w3.org/2000/svg">
<rect width="200" height="66" fill="#002855"/>
<path d="M157.109 8H193.838C191.999 16.7096 190.171 25.3552 188.327 34.0886C189.285 34.202 190.127 34.1483 190.971 34.121C191.676 34.0988 192.394 34.0954 193.089 34.1986C194.033 34.3376 194.268 35.0455 193.676 35.8123C193.277 36.3394 192.715 36.7206 192.078 36.8971C191.042 37.1794 189.986 37.3892 188.932 37.5999C188.518 37.6852 188.088 37.6852 187.553 37.7338C186.082 44.7188 184.61 51.7124 183.135 58.7145H146.492C146.492 58.5363 146.464 58.3734 146.492 58.2215C148.658 47.9495 150.829 37.6781 153.003 27.4072C153.092 27.0511 153.07 26.6759 152.937 26.3334C152.145 24.2976 152.041 22.1654 152.304 20.0383C152.503 18.4392 152.93 16.869 153.243 15.2836C153.509 13.9428 154.217 13.3049 155.614 13.3663C155.729 13.3583 155.843 13.3415 155.955 13.316C156.337 11.5753 156.719 9.81321 157.109 8ZM182.629 32.4852L182.805 32.3393C182.72 31.5513 182.673 30.759 182.555 29.9769C182.34 28.5577 181.92 27.2144 180.995 26.0707C180.442 25.3884 179.932 24.6652 179.369 23.9888C179.056 23.6127 178.894 23.2213 178.994 22.7436C179.128 22.1014 178.875 21.6051 178.482 21.1078C176.844 19.0166 174.924 17.2059 172.939 15.4601C172.75 15.29 172.52 15.1724 172.271 15.1189C171.126 14.9199 169.978 14.7431 168.825 14.5885C167.637 14.4298 166.511 14.5885 165.52 15.3407C165.213 15.5752 164.861 15.6298 164.472 15.5684C162.79 15.304 161.107 15.0567 159.423 14.8008C158.216 14.6209 157.011 14.4324 155.799 14.284C155.051 14.1927 154.385 14.4204 154.204 15.3074C154 16.307 153.676 17.2827 153.483 18.2831C153.115 20.1876 152.921 22.1031 153.312 24.0358C154.13 28.0596 156.553 30.7811 160.221 32.4383C163.517 33.9265 167.033 34.3368 170.61 34.3726C170.766 34.3799 170.921 34.3481 171.061 34.28C171.202 34.2119 171.322 34.1097 171.413 33.9828C171.644 33.6957 171.855 33.3928 172.043 33.0762C172.548 32.1756 172.521 32.0579 171.804 31.3381C171.738 31.2575 171.681 31.1703 171.633 31.0779C172.5 29.3065 174.106 28.4434 176.275 28.5398C176.728 28.5521 177.165 28.7127 177.518 28.9969C178.529 29.7787 179.561 30.5324 180.614 31.2579C181.265 31.7031 181.961 32.0784 182.633 32.4852H182.629ZM169.664 36.2063C166.588 36.0997 163.638 35.7747 160.858 34.5602C158.057 33.3364 155.865 31.3867 154.153 28.8519L153.983 28.927C152.857 34.3231 151.732 39.7184 150.599 45.147C151.417 45.3414 152.09 45.4608 152.843 45.1734C154.751 44.4442 156.701 43.8233 158.616 43.112C159.16 42.9107 159.546 42.9773 160.009 43.3141C162.929 45.4344 165.869 47.5248 168.802 49.6254C168.95 49.732 169.086 49.8574 169.291 50.0263L165.494 52.439C167.416 54.0595 169.206 55.5947 171.123 57.0369C171.038 55.732 171.608 54.6625 172.043 53.5563C172.283 52.9491 172.555 52.3521 172.768 51.7371C172.886 51.4205 172.949 51.0863 172.956 50.7487C172.952 49.8958 172.877 49.0429 172.871 48.19C172.871 47.7934 172.756 47.4052 172.541 47.0719C171.744 45.7926 171.039 44.4536 170.16 43.234C169.375 42.1466 169.155 41.1137 169.665 39.8498C170.141 38.6813 169.727 37.4685 169.664 36.2063ZM159.224 44.1892C159.224 45.6493 159.2 46.9525 159.233 48.254C159.257 48.9326 159.13 49.608 158.86 50.231C158.226 51.6868 157.699 53.193 156.997 54.613C156.492 55.6365 156.535 56.4842 157.353 57.3977C159.387 57.3806 161.521 57.4386 163.739 57.3576C163.642 57.0881 163.612 56.9184 163.526 56.7827C163.137 56.167 163.132 55.5435 163.29 54.8356C163.746 52.7887 164.098 50.7214 164.556 48.6762C164.68 48.1218 164.523 47.8514 164.1 47.5615C162.72 46.6156 161.361 45.6374 159.992 44.6745C159.789 44.5303 159.573 44.4084 159.224 44.1892ZM173.446 31.2835C173.746 31.5573 173.991 31.8336 174.285 32.0417C175.35 32.7948 176.384 33.605 177.513 34.2472C181.539 36.5389 185.833 37.4992 190.442 36.5619C191.154 36.4169 191.844 36.127 192.517 35.8404C192.846 35.7014 193.143 35.431 192.924 34.8596C192.421 34.8596 191.891 34.8425 191.363 34.8596C189.774 34.921 188.193 34.9449 186.621 34.6037C183.346 33.8848 180.457 32.3683 177.767 30.4187C176.384 29.4157 174.508 29.7577 173.446 31.2826V31.2835ZM181.037 48.1081C180.961 48.0778 180.882 48.0541 180.801 48.0374C179.501 47.9717 179.128 47.4796 179.517 46.225C179.782 45.3867 180.092 44.5631 180.444 43.7576C181.084 42.2728 181.775 40.8092 182.42 39.3227C182.676 38.7257 182.893 38.1133 182.75 37.5879L177.664 35.7508C177.688 35.9666 177.73 36.1833 177.735 36.4024C177.754 37.1649 177.836 37.9376 177.754 38.689C177.622 39.8992 177.339 41.0924 177.193 42.3018C177.022 43.7082 176.899 45.1222 176.82 46.5363C176.775 47.397 177.042 48.2451 177.572 48.9244C178.207 49.7593 179.069 50.1184 180.105 50.0331C181.033 49.9478 181.3 49.6067 181.183 48.706C181.145 48.5038 181.096 48.3039 181.035 48.1073L181.037 48.1081Z" fill="#E7BA3B"/>
<path d="M82.7927 30.2277C83.2464 30.3659 83.573 30.4554 83.892 30.5688C85.6148 31.159 86.6357 32.5091 86.7295 34.3292C86.8361 36.3931 86.1547 38.1935 84.814 39.7321C82.9453 41.878 80.5794 43.0439 77.7163 43.0822C75.1577 43.1163 72.5991 43.0942 70.0405 43.0899C69.1518 43.0899 69.0324 42.9424 69.2072 42.0886C70.7327 34.6351 72.2611 27.1818 73.7923 19.7288C73.9876 18.7787 74.1428 18.6559 75.1014 18.6567C76.8072 18.6567 78.5129 18.6567 80.2187 18.6781C81.4468 18.6909 82.663 18.8418 83.8118 19.2913C84.422 19.521 85.0006 19.827 85.5338 20.2022C86.9999 21.2682 87.3999 22.7838 87.1645 24.5066C86.8233 27.0311 85.5142 28.8759 83.214 30.0008C83.1142 30.046 83.0178 30.104 82.7927 30.2277ZM75.5432 32.0597C74.988 34.8017 74.4439 37.4857 73.8989 40.1705C75.162 40.3923 77.8323 40.2882 78.872 39.9999C80.4396 39.5735 81.5159 38.608 82.0345 37.0618C82.1964 36.5783 82.3107 36.0801 82.3756 35.5744C82.5931 33.8831 81.7317 32.5936 80.0728 32.2192C78.5974 31.89 77.0912 32.0469 75.5458 32.0597H75.5432ZM76.1309 29.2196C76.8132 29.2196 77.405 29.2196 77.9961 29.2196C79.2717 29.2123 80.4935 28.7046 81.3985 27.8056C82.3035 26.9066 82.8195 25.6883 82.8353 24.4128C82.8626 22.9876 82.2161 22.11 80.8515 21.7305C79.8281 21.4473 78.7867 21.519 77.7087 21.5454C77.1833 24.1134 76.6673 26.6243 76.1334 29.2196H76.1309Z" fill="#FBFCFC"/>
<path d="M101.172 40.3514C100.806 40.7327 100.567 41.0073 100.303 41.2538C98.0171 43.386 95.3408 44.006 92.3335 43.2785C90.6679 42.8751 89.6444 41.7774 89.1045 40.1834C88.6474 38.8316 88.6448 37.4389 88.7941 36.0504C89.0048 34.0888 89.438 32.1749 90.3148 30.4026C90.7429 29.5062 91.2756 28.6637 91.902 27.8926C94.0205 25.3621 96.7915 24.621 99.9582 25.2129C100.507 25.3117 101.031 25.5184 101.499 25.821C101.968 26.1236 102.372 26.5161 102.687 26.9758C102.785 27.1131 102.894 27.2436 103 27.3749C103.014 27.3911 103.048 27.3903 103.162 27.4235C103.333 26.9971 103.518 26.5647 103.68 26.1221C103.851 25.6649 104.14 25.4398 104.643 25.4602C105.354 25.4841 106.065 25.4534 106.775 25.4696C107.467 25.4858 107.576 25.6231 107.442 26.3012C106.886 29.1139 106.324 31.9253 105.759 34.7352C105.519 35.9293 105.261 37.1233 105.035 38.3241C104.967 38.6873 104.94 39.057 104.956 39.4261C104.981 39.9907 105.117 40.1825 105.694 40.2917C106.159 40.377 106.252 40.6218 106.179 41.0081C106.085 41.5096 105.969 42.0077 105.864 42.5075C105.772 42.9433 105.477 43.1301 105.061 43.1045C104.438 43.0854 103.817 43.0318 103.2 42.9442C102.091 42.7591 101.462 42.0555 101.262 40.9587C101.235 40.8188 101.219 40.6781 101.172 40.3514ZM92.789 37.3809C92.8171 37.7723 92.8154 38.2602 92.8956 38.7335C93.0841 39.8423 93.6998 40.4998 94.7796 40.644C97.0457 40.9476 98.9834 40.3327 100.238 38.3224C101.633 36.0905 102.128 33.5932 102.029 30.9877C101.989 29.9259 101.558 28.9988 100.589 28.4197C98.7062 27.293 96.0606 27.8858 94.864 29.7289C94.5212 30.2506 94.2353 30.8076 94.0111 31.3903C93.2956 33.2845 92.922 35.2606 92.789 37.3766V37.3809Z" fill="#FBFBFC"/>
<path d="M136.912 33.9913C138.774 37.0121 140.665 39.8974 142.53 42.9627C142.174 43.0326 141.969 43.1051 141.762 43.1076C140.768 43.1196 139.773 43.0897 138.777 43.1221C138.128 43.1426 137.729 42.8748 137.413 42.317C136.282 40.3136 135.119 38.329 133.966 36.3392C133.828 36.1021 133.677 35.8727 133.442 35.4957C133.201 36.6446 132.989 37.6356 132.786 38.6292C132.546 39.7968 132.318 40.9661 132.079 42.1337C131.908 42.9865 131.76 43.1059 130.876 43.1111C129.947 43.1162 129.018 43.1008 127.983 43.094C128.011 42.6497 127.992 42.317 128.057 42.0015C129.445 35.2188 130.838 28.4365 132.236 21.6544C132.299 21.3508 132.302 21.0455 132.647 20.8723C134.012 20.19 135.376 19.4847 136.911 18.6992C135.933 23.5111 134.988 28.1576 134.043 32.8049L134.204 32.909C134.399 32.7273 134.598 32.5516 134.787 32.3631C136.797 30.3555 138.82 28.3546 140.806 26.3282C141.408 25.7133 142.055 25.4122 142.921 25.4659C143.786 25.5197 144.652 25.4779 145.558 25.5759C145.106 26.2753 144.498 26.77 143.945 27.309C143.375 27.8651 142.789 28.4041 142.212 28.9516C141.614 29.5202 141.017 30.0888 140.421 30.6574C139.844 31.2049 139.266 31.7522 138.688 32.2992C138.115 32.8459 137.542 33.3908 136.912 33.9913Z" fill="#FBFBFC"/>
<path d="M115.306 28.2099C115.719 27.7348 116.013 27.3988 116.306 27.0619C117.926 25.1958 119.987 24.6935 122.328 25.2137C125.635 25.9489 126.553 28.5698 126.198 30.9186C125.89 32.9655 125.397 34.9834 125.01 37.0192C124.874 37.7152 124.786 38.4196 124.745 39.1275C124.708 39.8832 124.835 40.041 125.561 40.2849C125.915 40.4034 126.001 40.626 125.945 40.9314C125.849 41.461 125.734 41.9889 125.604 42.5126C125.512 42.8896 125.25 43.1096 124.859 43.0763C124.101 43.0064 123.316 42.9987 122.595 42.7855C121.193 42.3719 120.444 41.2503 120.542 39.6299C120.61 38.5041 120.883 37.3885 121.088 36.2738C121.358 34.8239 121.671 33.3809 121.936 31.9293C122.085 31.1131 122.094 30.2909 121.85 29.4807C121.552 28.4623 120.867 27.9182 119.804 27.8866C118.425 27.8457 117.318 28.3805 116.496 29.4883C115.823 30.3949 115.433 31.4295 115.199 32.5195C114.522 35.6836 113.867 38.8521 113.197 42.0179C112.981 43.0346 112.912 43.0849 111.913 43.0891C111.202 43.0891 110.492 43.1002 109.781 43.0891C109.056 43.0755 108.928 42.9382 109.059 42.2047C109.349 40.6422 109.677 39.0866 109.99 37.5284C110.495 35.0238 110.998 32.5192 111.499 30.0146C111.564 29.7387 111.591 29.4551 111.579 29.1719C111.543 28.7216 111.359 28.3839 110.841 28.2662C110.286 28.1391 110.27 28.0649 110.366 27.4986C110.438 27.079 110.517 26.6602 110.616 26.2457C110.762 25.6291 110.93 25.4602 111.548 25.4781C112.225 25.4994 112.912 25.5404 113.572 25.6905C114.555 25.9139 115.141 26.5596 115.224 27.6026C115.24 27.734 115.262 27.8696 115.306 28.2099Z" fill="#FBFBFC"/>
<path d="M14.553 21.7028C14.0413 24.1821 13.5432 26.6162 13.0264 29.1314C13.3249 29.1561 13.5645 29.1928 13.805 29.1936C15.5662 29.1987 17.3283 29.1936 19.0929 29.1936C19.2916 29.1936 19.4911 29.1834 19.6899 29.1987C20.2221 29.238 20.3517 29.3778 20.2715 29.8853C20.1914 30.3928 20.089 30.8917 19.9679 31.3872C19.7973 32.0934 19.5918 32.2546 18.8285 32.2623C17.5781 32.2751 16.3278 32.2623 15.0758 32.2623H12.3824C12.1377 33.4452 11.9031 34.577 11.6694 35.7087C11.2293 37.8486 10.7978 39.9902 10.3466 42.1275C10.1641 42.9931 10.0711 43.0554 9.21741 43.0656C8.44983 43.0719 7.68224 43.0719 6.91465 43.0656C6.00378 43.058 5.8912 42.9155 6.07372 41.991C6.29461 40.8772 6.5283 39.7667 6.75602 38.6554C8.04841 32.3748 9.3408 26.0946 10.6332 19.8146C10.6758 19.5921 10.7302 19.372 10.7961 19.1553C10.9018 18.8201 11.1424 18.6436 11.4946 18.6359C11.7215 18.6291 11.9492 18.6299 12.1769 18.6299L22.9154 18.6444L23.5977 18.6487C23.9849 18.6487 24.2024 18.8431 24.1376 19.232C24.0301 19.8751 23.8997 20.5156 23.7478 21.1493C23.6626 21.4905 23.3794 21.6448 23.0485 21.6841C22.8215 21.7022 22.5937 21.707 22.3662 21.6986H14.553V21.7028Z" fill="#FBFBFC"/>
<path d="M47.1863 43.4217C46.0003 43.4187 44.8224 43.2275 43.6963 42.8553C43.1864 42.686 42.7061 42.438 42.2729 42.1202C41.7697 41.7458 41.7714 41.362 42.1356 40.8681C42.1697 40.8229 42.2098 40.7829 42.2481 40.7402C43.4976 39.3756 43.1744 39.5018 44.7419 40.0127C46.2515 40.5057 47.7842 40.7129 49.3611 40.5031C50.5961 40.3385 51.5837 39.8208 51.9837 38.5338C52.2225 37.7662 52.075 37.2596 51.3679 36.8818C50.7623 36.5735 50.1352 36.3093 49.4916 36.0912C48.7982 35.8404 48.0929 35.6144 47.3807 35.4277C44.6353 34.7078 43.9223 32.6575 44.5228 30.2251C45.1803 27.5624 46.9355 25.8865 49.5897 25.2443C51.7569 24.6998 54.0408 24.8541 56.115 25.6853C56.5617 25.8658 56.9808 26.1081 57.3602 26.4051C57.7909 26.7403 57.7867 26.9851 57.4455 27.4158C57.153 27.7731 56.8118 28.0836 56.556 28.4546C56.3001 28.8256 56.0093 28.8204 55.663 28.7104C55.0958 28.5296 54.5338 28.33 53.9683 28.1424C52.9773 27.8132 51.9556 27.7842 50.933 27.8865C49.663 28.0179 48.782 28.7701 48.4733 29.9181C48.237 30.7974 48.5031 31.3611 49.3671 31.6503C50.4699 32.0196 51.5948 32.324 52.6993 32.6882C53.3204 32.8835 53.9254 33.1264 54.5091 33.4149C55.6178 33.9829 56.1654 34.9321 56.1986 36.1739C56.2634 38.6029 55.3406 40.5372 53.3082 41.9087C51.5701 43.0805 49.6153 43.4507 47.1863 43.4217Z" fill="#FBFBFC"/>
<path d="M62.1126 28.093C61.548 28.093 61.0457 28.1058 60.5451 28.093C59.8994 28.0717 59.7775 27.9403 59.8935 27.3254C60.2824 25.2026 60.1988 25.4405 62.0478 25.4286C62.2431 25.4286 62.4376 25.409 62.7122 25.3945C62.8709 24.6056 63.0628 23.8405 63.1677 23.0636C63.2376 22.5518 63.479 22.2713 63.9352 22.0529C64.9843 21.5497 66.0086 20.9945 67.0448 20.464C67.2666 20.3506 67.4986 20.2568 67.8679 20.0879C67.5182 21.9079 67.1932 23.5949 66.8444 25.3936C67.2239 25.4073 67.5267 25.4218 67.8218 25.4286C68.2764 25.4397 68.731 25.4286 69.1864 25.4593C69.5335 25.4789 69.7058 25.6973 69.6444 26.0358C69.5489 26.5655 69.4405 27.0951 69.299 27.6145C69.1813 28.0461 68.8077 28.1331 68.4197 28.1373C67.7374 28.1459 67.0627 28.1373 66.3199 28.1373C66.0956 29.2461 65.8798 30.2908 65.6691 31.3399C65.2163 33.5932 64.7608 35.8465 64.319 38.1015C64.252 38.4059 64.2304 38.7186 64.2551 39.0294C64.331 39.7305 64.7881 40.1501 65.4849 40.2174C65.6256 40.2311 65.7698 40.2174 65.9114 40.2277C66.5519 40.2814 66.673 40.4153 66.5698 41.0243C66.4887 41.4993 66.3736 41.9692 66.261 42.4383C66.1757 42.8051 65.9472 43.0609 65.5531 43.0592C64.6448 43.0592 63.7237 43.1172 62.8316 42.9876C60.9621 42.7164 60.0103 41.5658 59.9992 39.6443C60.0084 38.9915 60.0827 38.3412 60.221 37.7032C60.818 34.6686 61.4397 31.6384 62.0512 28.6064C62.0751 28.4751 62.0819 28.3412 62.1126 28.093Z" fill="#FBFBFC"/>
<path d="M37.8019 27.3878C38.8254 26.3942 39.8582 25.5566 41.2364 25.3298C41.9853 25.2061 42.7358 25.0654 43.5938 25.2522C43.3686 26.3285 43.1674 27.3494 42.9379 28.3651C42.8646 28.6961 42.5968 28.7916 42.2812 28.7796C41.9656 28.7677 41.6578 28.7327 41.3431 28.7353C39.552 28.7481 38.2863 29.6283 37.7797 31.3442C37.4181 32.5656 37.1887 33.827 36.9158 35.0739C36.3955 37.4517 35.8872 39.8397 35.367 42.2278C35.1844 43.0653 35.0079 43.2052 34.1559 43.2137C33.5026 43.2205 32.8484 43.2137 32.1943 43.2137C31.1913 43.2069 31.0855 43.0934 31.2885 42.1314C31.819 39.6043 32.3623 37.0798 32.903 34.5553C33.1989 33.1677 33.5068 31.7826 33.7925 30.3933C33.8689 30.032 33.9089 29.664 33.912 29.2948C33.912 28.6543 33.7678 28.4419 33.1273 28.2816C32.7341 28.1809 32.5951 27.9822 32.6616 27.6197C32.76 27.0898 32.8717 26.5627 32.9968 26.0385C33.0872 25.6658 33.3465 25.4227 33.7311 25.4492C34.6335 25.5114 35.5469 25.5481 36.4288 25.7264C37.2177 25.885 37.6714 26.4837 37.8019 27.3878Z" fill="#FBFBFC"/>
<path d="M27.5906 25.5351C28.017 25.5351 28.4434 25.5146 28.8699 25.5402C29.4669 25.576 29.6144 25.7688 29.4882 26.3632C29.0481 28.4434 28.591 30.5193 28.1449 32.5986C27.6901 34.7024 27.2432 36.8095 26.8042 38.9201C26.7375 39.1955 26.7196 39.4804 26.7513 39.7619C26.8196 40.2114 26.9219 40.6583 27.5334 40.7103C27.9198 40.7427 28.0306 41.025 27.9488 41.3926C27.8447 41.8634 27.7782 42.3427 27.6579 42.8084C27.5164 43.361 27.2793 43.5657 26.6729 43.5291C25.9991 43.489 25.3083 43.4173 24.6644 43.2357C23.3688 42.8706 22.6848 41.9282 22.6175 40.6114C22.5876 39.875 22.6518 39.1379 22.8085 38.4178C23.6349 34.4826 24.4963 30.5517 25.3492 26.6199C25.5573 25.6605 25.6963 25.5487 26.6541 25.5368C26.9663 25.5368 27.2784 25.5368 27.5923 25.5368L27.5906 25.5351Z" fill="#FAFBFB"/>
<path d="M122.588 49.7258C121.821 49.2857 121.505 48.6699 121.715 47.8494C121.945 46.9471 122.432 46.2563 123.342 45.9194C124.148 45.6218 125.026 45.5854 125.854 45.8153C126.848 46.0772 127.309 47.0435 126.899 48.136C126.738 48.5624 126.373 48.9241 126.058 49.2763C125.896 49.4571 125.641 49.5535 125.435 49.6831C125.447 49.7539 125.435 49.823 125.464 49.8426C126.778 50.8072 126.907 52.31 125.781 53.5739C124.8 54.6758 122.575 55.046 121.285 54.3236C120.807 54.0558 120.517 53.6549 120.459 53.1074C120.337 52.0149 120.641 51.0818 121.532 50.3953C121.822 50.1701 122.152 49.9987 122.588 49.7258ZM123.256 53.4929C124.293 53.4758 125.165 52.4575 125.023 51.4289C124.918 50.6673 124.436 50.298 123.665 50.3867C122.812 50.4857 122.091 51.2626 122.015 52.1675C121.943 53.0298 122.391 53.5074 123.256 53.4929ZM123.201 48.1249C123.189 48.7219 123.56 49.1484 124.092 49.139C124.735 49.1287 125.432 48.4166 125.466 47.736C125.49 47.2115 125.134 46.843 124.577 46.8174C124.4 46.81 124.224 46.8382 124.058 46.9004C123.892 46.9626 123.74 47.0576 123.612 47.1795C123.484 47.3015 123.381 47.4481 123.311 47.6105C123.24 47.7729 123.203 47.9478 123.201 48.1249Z" fill="#F6F7F8"/>
<path d="M132.09 50.944C131.377 51.6416 130.555 51.7968 129.631 51.6024C128.924 51.4531 128.489 51.0386 128.298 50.3333C127.661 47.9751 129.515 45.6425 131.941 45.7559C132.902 45.802 133.526 46.2787 133.811 47.2058C134.107 48.1602 133.974 49.118 133.796 50.0689C133.596 51.135 133.265 52.1602 132.646 53.0651C131.55 54.6702 129.757 55.1589 128.1 54.3162C127.968 54.2357 127.842 54.1462 127.723 54.0484C127.865 53.7738 127.991 53.5307 128.134 53.2578C129.135 53.3337 130.173 53.8719 131.07 53.0634C131.676 52.5158 131.984 51.7934 132.09 50.944ZM132.494 48.3128C132.494 47.0079 131.7 46.5218 130.826 47.0404C130.526 47.2178 130.219 47.5069 130.086 47.8173C129.862 48.3317 129.722 48.8789 129.671 49.4378C129.606 50.2907 130.344 50.7973 131.145 50.4681C131.462 50.3376 131.801 50.0715 131.955 49.7755C132.234 49.2357 132.383 48.6284 132.494 48.3128Z" fill="#F6F6F8"/>
<path d="M89.9253 46.3211L89.4792 47.1458C88.8907 47.0546 88.3355 46.9045 87.7794 46.9002C87.2464 46.8938 86.7161 46.9777 86.211 47.1484C85.6916 47.3318 85.4349 47.8145 85.4494 48.3714C85.463 48.8712 85.8554 49.087 86.2579 49.2601C86.675 49.4401 87.1048 49.5919 87.5125 49.7906C89.098 50.5582 89.4093 52.3194 88.205 53.6149C87.7531 54.0922 87.1699 54.4249 86.5291 54.571C85.2362 54.8968 84.0131 54.7279 82.7705 54.0985C82.9249 53.8034 83.0503 53.562 83.1969 53.2857C83.8264 53.3599 84.4404 53.4836 85.0554 53.4904C85.5902 53.4949 86.123 53.4245 86.6383 53.2814C86.8629 53.2271 87.063 53.0995 87.2071 52.9188C87.3512 52.7381 87.431 52.5146 87.434 52.2836C87.463 51.7471 87.1423 51.4384 86.7176 51.2251C86.2929 51.0119 85.8315 50.8439 85.3957 50.6367C83.8144 49.8861 83.4673 48.3475 84.5667 46.9855C84.9816 46.475 85.542 46.1029 86.1735 45.9186C87.4613 45.5186 88.669 45.7488 89.9253 46.3211Z" fill="#F6F6F8"/>
<path d="M134.15 52.4559C134.369 52.0294 134.456 51.7343 134.638 51.5177C136.131 49.7719 137.653 48.0516 139.139 46.2998C139.612 45.7403 140.155 45.8103 140.838 45.9373C140.48 47.7344 140.13 49.4998 139.772 51.3011L140.676 51.4367C140.621 51.7531 140.567 52.0635 140.512 52.3834L139.524 52.4832C139.379 53.1168 139.229 53.7693 139.07 54.4678H137.568C137.695 53.7804 137.81 53.1527 137.939 52.4525L134.15 52.4559ZM138.208 51.3582C138.407 50.3706 138.595 49.4393 138.805 48.4081C137.943 49.1476 136.646 50.7672 136.423 51.3582H138.208Z" fill="#F6F7F8"/>
<path d="M95.2509 54.4748H93.9033C93.904 54.2495 93.9194 54.0244 93.9494 53.801C94.1822 52.6608 94.4381 51.5247 94.6632 50.3836C94.7485 49.9571 94.9652 49.5102 94.427 49.1606C94.3246 49.0932 94.3818 48.6676 94.4747 48.4552C94.5293 48.3324 94.8048 48.2377 94.9754 48.2463C95.5093 48.2744 95.9988 48.4288 96.1489 49.0889C96.3963 48.8638 96.5924 48.6625 96.8116 48.4919C97.4376 48.0006 98.4423 47.9546 99.1459 48.3691C99.7592 48.7307 100.059 49.4463 99.9203 50.2966C99.8291 50.8569 99.6645 51.4053 99.5937 51.9674C99.5229 52.5294 99.2329 53.1043 99.8018 53.6237C99.9255 53.7362 99.7788 54.1456 99.7575 54.3981C98.4048 54.6352 97.818 54.1132 97.9911 52.8629C98.0841 52.1891 98.2513 51.5256 98.3809 50.8561C98.4237 50.6626 98.4522 50.4661 98.4662 50.2684C98.4926 49.6714 98.3349 49.3209 97.9604 49.2024C97.4905 49.0531 97.0172 49.1282 96.7127 49.5111C96.4287 49.8608 96.2184 50.2644 96.0944 50.6974C95.8283 51.7115 95.6475 52.7443 95.4291 53.7755C95.3822 53.9972 95.3191 54.2087 95.2509 54.4748Z" fill="#F4F5F7"/>
<path d="M108.532 51.9137C108.351 53.2553 108.797 53.7534 109.995 53.6143C110.441 53.5623 110.877 53.4284 111.315 53.3329C111.719 53.9171 111.714 54.0425 111.164 54.2711C110.253 54.6531 109.31 54.7743 108.334 54.5209C107.552 54.3171 107.115 53.7977 107.021 53.025C106.866 51.7457 107.107 50.5278 107.849 49.4549C108.641 48.3043 109.763 47.9069 111.122 48.1619C111.969 48.3214 112.519 48.8442 112.586 49.7039C112.613 50.2119 112.542 50.7203 112.378 51.2016C112.198 51.7559 111.683 51.9077 111.137 51.9103C110.286 51.9154 109.439 51.9137 108.532 51.9137ZM108.726 50.8903C109.372 50.8903 109.94 50.9158 110.504 50.8758C110.61 50.8639 110.712 50.8306 110.805 50.7778C110.898 50.725 110.979 50.6539 111.044 50.5687C111.253 50.237 111.086 49.5529 110.802 49.3031C110.518 49.0532 110.035 49.0634 109.615 49.3457C109.115 49.6817 108.882 50.1832 108.726 50.8886V50.8903Z" fill="#F6F7F8"/>
<path d="M28.9853 18.8146C29.4663 18.8146 29.9465 18.8069 30.4275 18.8146C30.8224 18.8231 31.0015 19.0517 30.9273 19.4269C30.7459 20.3407 30.5506 21.2504 30.3414 22.1561C30.2408 22.5962 29.9457 22.8265 29.4885 22.8265C28.6126 22.8265 27.735 22.8478 26.86 22.818C26.3295 22.8001 26.2049 22.6406 26.3013 22.1169C26.4642 21.2282 26.6646 20.3463 26.8617 19.4653C26.9614 19.021 27.2514 18.7975 27.7145 18.8044C28.141 18.8112 28.5631 18.8044 28.987 18.8044L28.9853 18.8146Z" fill="#FBFBFC"/>
<path d="M118.03 54.4715H116.598C117.055 52.1883 117.499 49.9623 117.963 47.6399C117.332 47.8898 116.813 48.0962 116.285 48.3043C116.173 47.4515 116.256 47.2664 116.928 46.9662C117.855 46.5525 118.789 46.1525 119.735 45.7397C119.821 46.3828 118.43 53.4736 118.03 54.4715Z" fill="#F6F6F8"/>
<path d="M105.278 53.3044C105.591 53.9867 105.584 54.0516 105.108 54.2861C104.49 54.5813 103.803 54.7034 103.121 54.6392C101.868 54.5394 101.143 53.7957 101.139 52.5343C101.127 51.5649 101.358 50.608 101.812 49.7514C102.58 48.3177 104.395 47.6559 105.917 48.2452C106.173 48.3424 106.396 48.5079 106.633 48.6409C106.207 49.4418 106.207 49.4418 105.466 49.2379C104.299 48.9181 103.419 49.3096 103.009 50.432C102.795 51.0167 102.668 51.6296 102.633 52.2511C102.574 53.3258 103.198 53.8153 104.253 53.6021C104.581 53.5373 104.9 53.4162 105.278 53.3044Z" fill="#F4F5F7"/>
<path d="M91.2489 48.2827H92.5734C92.4711 48.8507 92.3917 49.348 92.292 49.8401C92.1112 50.7296 91.9031 51.614 91.7384 52.507C91.6762 52.8482 91.5679 53.1893 91.9022 53.5305C92.0617 53.6925 91.9875 54.0882 92.0122 54.3552C90.7551 54.6895 89.9977 54.1624 90.1777 53.0929C90.4335 51.5578 90.7926 50.0354 91.1158 48.5087C91.1486 48.4271 91.1935 48.351 91.2489 48.2827Z" fill="#F4F5F7"/>
<path d="M93.1555 45.6646L92.8946 46.9746H91.5078C91.4948 46.8276 91.4948 46.6797 91.5078 46.5328C91.5607 46.2573 91.6391 45.9861 91.7185 45.6646H93.1555Z" fill="#F4F5F7"/>
<path d="M182.633 32.4851C181.961 32.0783 181.269 31.703 180.621 31.2578C179.57 30.5323 178.538 29.7787 177.525 28.9969C177.172 28.7126 176.735 28.552 176.282 28.5397C174.114 28.4434 172.506 29.3073 171.64 31.0779C171.687 31.1703 171.745 31.2575 171.81 31.338C172.528 32.0578 172.555 32.1755 172.05 33.0762C171.861 33.3927 171.651 33.6957 171.42 33.9828C171.329 34.1097 171.208 34.2118 171.068 34.2799C170.928 34.348 170.773 34.3799 170.617 34.3725C167.035 34.3367 163.524 33.9265 160.227 32.4382C156.56 30.7811 154.135 28.0596 153.319 24.0357C152.926 22.1031 153.12 20.1875 153.49 18.2831C153.682 17.2826 154.007 16.3069 154.21 15.3074C154.392 14.4187 155.057 14.191 155.806 14.2839C157.017 14.4323 158.223 14.6208 159.43 14.8008C161.114 15.0507 162.797 15.3023 164.479 15.5684C164.868 15.6298 165.22 15.5752 165.527 15.3406C166.517 14.5867 167.644 14.4298 168.832 14.5884C169.983 14.7419 171.132 14.9188 172.278 15.1189C172.526 15.1723 172.757 15.29 172.945 15.46C174.933 17.2059 176.853 19.0165 178.489 21.1078C178.878 21.605 179.131 22.1014 179.001 22.7436C178.901 23.2238 179.063 23.6127 179.376 23.9888C179.939 24.6651 180.448 25.3858 181.002 26.0707C181.926 27.2144 182.347 28.5576 182.562 29.9768C182.679 30.7589 182.732 31.5512 182.812 32.3393L182.633 32.4851ZM170.897 21.2835C169.8 22.0144 168.31 23.4063 168.05 23.9444C169.603 23.6621 171.165 23.5777 172.736 23.2272L170.897 21.2835Z" fill="#2F4265"/>
<path d="M169.664 36.2063C169.727 37.4685 170.141 38.6796 169.664 39.8591C169.152 41.1231 169.375 42.1559 170.159 43.2434C171.038 44.4604 171.743 45.802 172.541 47.0813C172.756 47.4146 172.87 47.8028 172.87 48.1994C172.88 49.0523 172.955 49.9052 172.955 50.758C172.948 51.0957 172.885 51.4299 172.767 51.7465C172.551 52.3614 172.282 52.9585 172.042 53.5657C171.608 54.6744 171.034 55.7414 171.122 57.0463C169.201 55.6066 167.411 54.0689 165.493 52.4484L169.29 50.0357C169.085 49.8651 168.949 49.7414 168.801 49.6348C165.868 47.5316 162.928 45.4412 160.008 43.3235C159.545 42.9824 159.156 42.9201 158.616 43.1214C156.7 43.8327 154.75 44.4536 152.842 45.1828C152.089 45.4702 151.417 45.3534 150.599 45.1564C151.731 39.7278 152.856 34.3325 153.982 28.9364L154.153 28.8613C155.864 31.3961 158.056 33.3457 160.857 34.5696C163.638 35.7747 166.588 36.0997 169.664 36.2063Z" fill="#304265"/>
<path d="M159.225 44.189C159.575 44.409 159.791 44.5301 159.993 44.6742C161.357 45.6371 162.722 46.6154 164.1 47.5612C164.527 47.8512 164.68 48.1216 164.557 48.6759C164.099 50.7228 163.746 52.7894 163.291 54.8354C163.133 55.5433 163.137 56.1667 163.527 56.7825C163.612 56.9181 163.642 57.0878 163.74 57.3574C161.522 57.4384 159.39 57.3804 157.353 57.3974C156.535 56.484 156.493 55.6337 156.998 54.6128C157.699 53.1928 158.227 51.6866 158.86 50.2307C159.13 49.6078 159.258 48.9324 159.234 48.2538C159.201 46.9514 159.225 45.6482 159.225 44.189Z" fill="#304364"/>
<path d="M173.447 31.2826C174.508 29.7577 176.387 29.4157 177.768 30.417C180.458 32.3667 183.347 33.8831 186.622 34.602C188.194 34.9432 189.778 34.9236 191.364 34.8579C191.892 34.8374 192.422 34.8579 192.925 34.8579C193.144 35.4293 192.847 35.6997 192.518 35.8387C191.845 36.1253 191.154 36.4153 190.443 36.5602C185.837 37.4984 181.54 36.5372 177.514 34.2455C176.385 33.6033 175.351 32.7957 174.286 32.04C173.992 31.8328 173.747 31.5564 173.447 31.2826Z" fill="#324464"/>
<path d="M181.036 48.1072C181.097 48.3031 181.147 48.5025 181.186 48.7042C181.303 49.6048 181.037 49.9485 180.109 50.0313C179.072 50.1234 178.21 49.7609 177.576 48.9225C177.045 48.2432 176.778 47.3952 176.823 46.5345C176.902 45.1204 177.026 43.7063 177.196 42.3C177.342 41.0906 177.622 39.8974 177.757 38.6872C177.843 37.9341 177.757 37.1631 177.738 36.4006C177.733 36.1814 177.692 35.9648 177.667 35.749L182.749 37.5895C182.892 38.1149 182.677 38.7315 182.419 39.3243C181.773 40.8066 181.083 42.2701 180.443 43.7592C180.09 44.5647 179.781 45.3883 179.516 46.2266C179.127 47.4812 179.5 47.9733 180.8 48.039C180.881 48.0549 180.959 48.0777 181.036 48.1072Z" fill="#324464"/>
<path d="M170.897 21.2832L172.735 23.2269C171.164 23.5774 169.603 23.6619 168.05 23.9442C168.31 23.406 169.8 22.0141 170.897 21.2832Z" fill="#DEB53D"/>
</svg>
