<svg width="32" height="32" viewBox="0 0 32 32" fill="none" xmlns="http://www.w3.org/2000/svg">
<path d="M16 4C11.88 4 8.64 7.13 8.187 11.125C7.31565 11.2654 6.49846 11.6388 5.82195 12.2056C5.14544 12.7725 4.63477 13.5117 4.344 14.345C1.884 15.054 0 17.248 0 20C0 23.324 2.676 26 6 26H26C29.324 26 32 23.324 32 20C32 18.24 31.145 16.664 29.906 15.562C29.674 12.048 26.871 9.244 23.344 9.062C22.14 6.133 19.378 4 16 4ZM16 6C18.762 6 20.97 7.77 21.75 10.28L21.97 11H23C25.755 11 28 13.245 28 16V16.5L28.406 16.813C28.896 17.1885 29.2942 17.6706 29.5703 18.2228C29.8465 18.7749 29.9934 19.3827 30 20C30 22.276 28.276 24 26 24H6C3.724 24 2 22.276 2 20C2 17.98 3.45 16.412 5.28 16.094L5.937 15.969L6.062 15.311C6.362 13.964 7.556 13 9 13H10V12C10 8.63 12.63 6 16 6ZM16 11.594L15.28 12.281L11.28 16.281L12.72 17.721L15 15.437V22H17V15.437L19.28 17.719L20.72 16.279L16.72 12.279L16 11.594Z" fill="#002855"/>
</svg>
