<svg width="18" height="18" viewBox="0 0 18 18" fill="none" xmlns="http://www.w3.org/2000/svg">
<path d="M18.75 7.50059H3.925L8.4625 2.05059C8.67467 1.79532 8.77675 1.46622 8.74628 1.13568C8.7158 0.805151 8.55527 0.500262 8.3 0.288089C8.04473 0.0759155 7.71563 -0.0261618 7.3851 0.00431281C7.05456 0.0347875 6.74967 0.195318 6.5375 0.450589L0.2875 7.95059C0.245451 8.01024 0.207849 8.07291 0.175 8.13809C0.175 8.20059 0.175 8.23809 0.0875002 8.30059C0.0308421 8.44391 0.0011764 8.59648 0 8.75059C0.0011764 8.9047 0.0308421 9.05727 0.0875002 9.20059C0.0875002 9.26309 0.0874998 9.30059 0.175 9.36309C0.207849 9.42826 0.245451 9.49093 0.2875 9.55059L6.5375 17.0506C6.65503 17.1917 6.8022 17.3052 6.96856 17.3829C7.13491 17.4607 7.31636 17.5009 7.5 17.5006C7.79207 17.5012 8.07511 17.3994 8.3 17.2131C8.42657 17.1082 8.5312 16.9793 8.60789 16.8338C8.68458 16.6884 8.73183 16.5293 8.74692 16.3656C8.76202 16.2018 8.74466 16.0367 8.69586 15.8797C8.64705 15.7227 8.56775 15.5769 8.4625 15.4506L3.925 10.0006H18.75C19.0815 10.0006 19.3995 9.86889 19.6339 9.63447C19.8683 9.40005 20 9.08211 20 8.75059C20 8.41907 19.8683 8.10113 19.6339 7.86671C19.3995 7.63229 19.0815 7.50059 18.75 7.50059Z" fill="#002855"/>
</svg>
