<svg width="18" height="17" viewBox="0 0 18 17" fill="none" xmlns="http://www.w3.org/2000/svg">
<path d="M8.99638 14.8061C8.86399 14.8061 8.7316 14.7573 8.62709 14.6528L4.39764 10.4233C4.19558 10.2213 4.19558 9.88682 4.39764 9.68475C4.59971 9.48269 4.93416 9.48269 5.13623 9.68475L8.99638 13.5449L12.8565 9.68475C13.0586 9.48269 13.393 9.48269 13.5951 9.68475C13.7972 9.88682 13.7972 10.2213 13.5951 10.4233L9.36567 14.6528C9.26115 14.7573 9.12877 14.8061 8.99638 14.8061Z" fill="#62686D"/>
<path d="M8.9967 14.688C8.71103 14.688 8.47412 14.4511 8.47412 14.1654V2.4386C8.47412 2.15292 8.71103 1.91602 8.9967 1.91602C9.28238 1.91602 9.51929 2.15292 9.51929 2.4386V14.1654C9.51929 14.4511 9.28238 14.688 8.9967 14.688Z" fill="#62686D"/>
</svg>
