<svg width="40" height="40" viewBox="0 0 40 40" fill="none" xmlns="http://www.w3.org/2000/svg">
<path d="M20 33C20.8333 33 21.5413 32.708 22.124 32.124C22.708 31.5413 23 30.8333 23 30H17C17 30.8333 17.292 31.5413 17.876 32.124C18.4587 32.708 19.1667 33 20 33ZM10 28H30V24H28V18.8C28 16.7667 27.4753 14.908 26.426 13.224C25.3753 11.5413 23.9 10.4667 22 10V7H18V10C16.1 10.4667 14.6253 11.5413 13.576 13.224C12.5253 14.908 12 16.7667 12 18.8V24H10V28ZM20 40C17.2333 40 14.6333 39.4747 12.2 38.424C9.76667 37.3747 7.65 35.95 5.85 34.15C4.05 32.35 2.62533 30.2333 1.576 27.8C0.525334 25.3667 0 22.7667 0 20C0 17.2333 0.525334 14.6333 1.576 12.2C2.62533 9.76667 4.05 7.65 5.85 5.85C7.65 4.05 9.76667 2.62467 12.2 1.574C14.6333 0.524667 17.2333 0 20 0C22.7667 0 25.3667 0.524667 27.8 1.574C30.2333 2.62467 32.35 4.05 34.15 5.85C35.95 7.65 37.3747 9.76667 38.424 12.2C39.4747 14.6333 40 17.2333 40 20C40 22.7667 39.4747 25.3667 38.424 27.8C37.3747 30.2333 35.95 32.35 34.15 34.15C32.35 35.95 30.2333 37.3747 27.8 38.424C25.3667 39.4747 22.7667 40 20 40Z" fill="#585858"/>
</svg>
