<svg width="18" height="20" viewBox="0 0 18 20" fill="none" xmlns="http://www.w3.org/2000/svg">
<path d="M13.0765 8.46154H4.61493C4.41092 8.46154 4.21526 8.3805 4.07101 8.23624C3.92675 8.09198 3.8457 7.89632 3.8457 7.69231V5C3.8457 2.24308 6.08878 0 8.8457 0C11.6026 0 13.8457 2.24308 13.8457 5V7.69231C13.8457 7.89632 13.7647 8.09198 13.6204 8.23624C13.4761 8.3805 13.2805 8.46154 13.0765 8.46154ZM5.38416 6.92308H12.3072V5C12.3072 3.09154 10.7542 1.53846 8.8457 1.53846C6.93724 1.53846 5.38416 3.09154 5.38416 5V6.92308Z" fill="#7A7C87"/>
<path d="M15.3846 20.0008H2.30769C1.03538 20.0008 0 18.9654 0 17.6931V9.23152C0 7.95921 1.03538 6.92383 2.30769 6.92383H15.3846C16.6569 6.92383 17.6923 7.95921 17.6923 9.23152V17.6931C17.6923 18.9654 16.6569 20.0008 15.3846 20.0008ZM2.30769 8.46229C2.10368 8.46229 1.90802 8.54333 1.76376 8.68759C1.61951 8.83185 1.53846 9.02751 1.53846 9.23152V17.6931C1.53846 17.8971 1.61951 18.0927 1.76376 18.237C1.90802 18.3812 2.10368 18.4623 2.30769 18.4623H15.3846C15.5886 18.4623 15.7843 18.3812 15.9285 18.237C16.0728 18.0927 16.1538 17.8971 16.1538 17.6931V9.23152C16.1538 9.02751 16.0728 8.83185 15.9285 8.68759C15.7843 8.54333 15.5886 8.46229 15.3846 8.46229H2.30769Z" fill="#7A7C87"/>
</svg>
