<svg width="16" height="15" viewBox="0 0 16 15" fill="none" xmlns="http://www.w3.org/2000/svg">
<g clip-path="url(#clip0_54_9279)">
<path d="M14.475 15H1.525C0.68125 15 0 14.3613 0 13.5703V1.42969C0 0.638672 0.68125 0 1.525 0H14.4781C15.3187 0 16 0.638672 16 1.42969V13.5732C16 14.3613 15.3188 15 14.475 15Z" fill="#FF884B"/>
<path opacity="0.2" d="M14.9094 1.05762C14.8031 0.949219 14.65 0.878906 14.4781 0.878906H1.525C1.2 0.878906 0.9375 1.125 0.9375 1.42969V13.5732C0.9375 13.7344 1.0125 13.8779 1.12812 13.9775L2.21875 15H14.475C15.3156 15 16 14.3613 16 13.5703V2.08008L14.9094 1.05762Z" fill="black"/>
<path d="M1.65415 14.2422C1.33228 14.2422 1.06665 13.9961 1.06665 13.6914V1.55078C1.06665 1.24609 1.32915 1 1.65415 1H14.6073C14.9291 1 15.1948 1.24609 15.1948 1.55078V13.6943C15.1948 13.9961 14.9323 14.2451 14.6073 14.2451H1.65415V14.2422Z" fill="#FFB946"/>
<path d="M8.53331 4C7.50687 4 6.66906 4.78748 6.66907 5.75232C6.66906 6.71716 7.50687 7.50373 8.53331 7.50373C9.55976 7.50373 10.3976 6.71716 10.3976 5.75232C10.3976 4.78748 9.55976 4 8.53331 4ZM6.822 8.00439C6.00318 8.00439 5.33331 8.62693 5.33331 9.39293V10.2476V10.4843V11.7496C5.33332 11.8879 5.45255 12 5.59963 12H11.468C11.6147 11.9995 11.7333 11.8875 11.7333 11.7496V10.4843V10.2476V9.39293C11.7333 8.62693 11.0634 8.00439 10.2446 8.00439H6.822Z" fill="white"/>
</g>
<defs>
<clipPath id="clip0_54_9279">
<rect width="16" height="15" fill="white"/>
</clipPath>
</defs>
</svg>
