<svg width="430" height="274" viewBox="0 0 430 274" fill="none" xmlns="http://www.w3.org/2000/svg">
<g filter="url(#filter0_d_969_3980)">
<rect x="20" y="16" width="390" height="234" rx="5" fill="white"/>
<rect x="20.5" y="16.5" width="389" height="233" rx="4.5" stroke="#EDF2F6"/>
</g>
<path d="M45.135 184.566H43.983V179.082H42.099V178.254C42.627 178.246 43.071 178.11 43.431 177.846C43.791 177.574 44.015 177.222 44.103 176.79H45.135V184.566ZM48.7761 178.158C48.3201 178.638 48.0921 179.478 48.0921 180.678C48.0921 181.878 48.3201 182.718 48.7761 183.198C49.0961 183.534 49.5081 183.702 50.0121 183.702C50.5161 183.702 50.9281 183.534 51.2481 183.198C51.7041 182.718 51.9321 181.878 51.9321 180.678C51.9321 179.478 51.7041 178.638 51.2481 178.158C50.9281 177.822 50.5161 177.654 50.0121 177.654C49.5081 177.654 49.0961 177.822 48.7761 178.158ZM47.6241 183.498C47.1601 182.81 46.9281 181.87 46.9281 180.678C46.9281 179.486 47.1601 178.546 47.6241 177.858C48.1761 177.026 48.9721 176.61 50.0121 176.61C51.0521 176.61 51.8481 177.026 52.4001 177.858C52.8641 178.546 53.0961 179.486 53.0961 180.678C53.0961 181.87 52.8641 182.81 52.4001 183.498C51.8481 184.33 51.0521 184.746 50.0121 184.746C48.9721 184.746 48.1761 184.33 47.6241 183.498ZM56.3286 178.158C55.8726 178.638 55.6446 179.478 55.6446 180.678C55.6446 181.878 55.8726 182.718 56.3286 183.198C56.6486 183.534 57.0606 183.702 57.5646 183.702C58.0686 183.702 58.4806 183.534 58.8006 183.198C59.2566 182.718 59.4846 181.878 59.4846 180.678C59.4846 179.478 59.2566 178.638 58.8006 178.158C58.4806 177.822 58.0686 177.654 57.5646 177.654C57.0606 177.654 56.6486 177.822 56.3286 178.158ZM55.1766 183.498C54.7126 182.81 54.4806 181.87 54.4806 180.678C54.4806 179.486 54.7126 178.546 55.1766 177.858C55.7286 177.026 56.5246 176.61 57.5646 176.61C58.6046 176.61 59.4006 177.026 59.9526 177.858C60.4166 178.546 60.6486 179.486 60.6486 180.678C60.6486 181.87 60.4166 182.81 59.9526 183.498C59.4006 184.33 58.6046 184.746 57.5646 184.746C56.5246 184.746 55.7286 184.33 55.1766 183.498Z" fill="#898CAA"/>
<path d="M41.0777 134.695L42.2057 134.359C42.2377 134.839 42.4137 135.227 42.7337 135.523C43.0617 135.819 43.4697 135.967 43.9577 135.967C44.4297 135.967 44.8257 135.823 45.1457 135.535C45.4657 135.247 45.6257 134.867 45.6257 134.395C45.6257 133.883 45.4657 133.487 45.1457 133.207C44.8257 132.927 44.4257 132.787 43.9457 132.787C43.3617 132.787 42.8897 132.975 42.5297 133.351C42.4177 133.311 42.2337 133.239 41.9777 133.135C41.7217 133.031 41.5217 132.951 41.3777 132.895L42.3857 129.031H46.4897V130.111H43.1657L42.5897 132.343C42.9337 131.959 43.4617 131.767 44.1737 131.767C44.9497 131.767 45.5817 131.999 46.0697 132.463C46.5657 132.927 46.8137 133.555 46.8137 134.347C46.8137 135.099 46.5497 135.731 46.0217 136.243C45.4937 136.747 44.8057 136.999 43.9577 136.999C43.1577 136.999 42.4897 136.775 41.9537 136.327C41.4257 135.879 41.1337 135.335 41.0777 134.695ZM49.9199 130.399C49.4639 130.879 49.2359 131.719 49.2359 132.919C49.2359 134.119 49.4639 134.959 49.9199 135.439C50.2399 135.775 50.6519 135.943 51.1559 135.943C51.6599 135.943 52.0719 135.775 52.3919 135.439C52.8479 134.959 53.0759 134.119 53.0759 132.919C53.0759 131.719 52.8479 130.879 52.3919 130.399C52.0719 130.063 51.6599 129.895 51.1559 129.895C50.6519 129.895 50.2399 130.063 49.9199 130.399ZM48.7679 135.739C48.3039 135.051 48.0719 134.111 48.0719 132.919C48.0719 131.727 48.3039 130.787 48.7679 130.099C49.3199 129.267 50.1159 128.851 51.1559 128.851C52.1959 128.851 52.9919 129.267 53.5439 130.099C54.0079 130.787 54.2399 131.727 54.2399 132.919C54.2399 134.111 54.0079 135.051 53.5439 135.739C52.9919 136.571 52.1959 136.987 51.1559 136.987C50.1159 136.987 49.3199 136.571 48.7679 135.739ZM57.4724 130.399C57.0164 130.879 56.7884 131.719 56.7884 132.919C56.7884 134.119 57.0164 134.959 57.4724 135.439C57.7924 135.775 58.2044 135.943 58.7084 135.943C59.2124 135.943 59.6244 135.775 59.9444 135.439C60.4004 134.959 60.6284 134.119 60.6284 132.919C60.6284 131.719 60.4004 130.879 59.9444 130.399C59.6244 130.063 59.2124 129.895 58.7084 129.895C58.2044 129.895 57.7924 130.063 57.4724 130.399ZM56.3204 135.739C55.8564 135.051 55.6244 134.111 55.6244 132.919C55.6244 131.727 55.8564 130.787 56.3204 130.099C56.8724 129.267 57.6684 128.851 58.7084 128.851C59.7484 128.851 60.5444 129.267 61.0964 130.099C61.5604 130.787 61.7924 131.727 61.7924 132.919C61.7924 134.111 61.5604 135.051 61.0964 135.739C60.5444 136.571 59.7484 136.987 58.7084 136.987C57.6684 136.987 56.8724 136.571 56.3204 135.739Z" fill="#898CAA"/>
<path d="M46.4855 89.0488H45.3335V83.5648H43.4495V82.7368C43.9775 82.7288 44.4215 82.5928 44.7815 82.3288C45.1415 82.0568 45.3655 81.7048 45.4535 81.2728H46.4855V89.0488ZM50.1266 82.6408C49.6706 83.1208 49.4426 83.9608 49.4426 85.1608C49.4426 86.3608 49.6706 87.2008 50.1266 87.6808C50.4466 88.0168 50.8586 88.1848 51.3626 88.1848C51.8666 88.1848 52.2786 88.0168 52.5986 87.6808C53.0546 87.2008 53.2826 86.3608 53.2826 85.1608C53.2826 83.9608 53.0546 83.1208 52.5986 82.6408C52.2786 82.3048 51.8666 82.1368 51.3626 82.1368C50.8586 82.1368 50.4466 82.3048 50.1266 82.6408ZM48.9746 87.9808C48.5106 87.2928 48.2786 86.3528 48.2786 85.1608C48.2786 83.9688 48.5106 83.0288 48.9746 82.3408C49.5266 81.5088 50.3226 81.0928 51.3626 81.0928C52.4026 81.0928 53.1986 81.5088 53.7506 82.3408C54.2146 83.0288 54.4466 83.9688 54.4466 85.1608C54.4466 86.3528 54.2146 87.2928 53.7506 87.9808C53.1986 88.8128 52.4026 89.2288 51.3626 89.2288C50.3226 89.2288 49.5266 88.8128 48.9746 87.9808ZM57.6791 82.6408C57.2231 83.1208 56.9951 83.9608 56.9951 85.1608C56.9951 86.3608 57.2231 87.2008 57.6791 87.6808C57.9991 88.0168 58.4111 88.1848 58.9151 88.1848C59.4191 88.1848 59.8311 88.0168 60.1511 87.6808C60.6071 87.2008 60.8351 86.3608 60.8351 85.1608C60.8351 83.9608 60.6071 83.1208 60.1511 82.6408C59.8311 82.3048 59.4191 82.1368 58.9151 82.1368C58.4111 82.1368 57.9991 82.3048 57.6791 82.6408ZM56.5271 87.9808C56.0631 87.2928 55.8311 86.3528 55.8311 85.1608C55.8311 83.9688 56.0631 83.0288 56.5271 82.3408C57.0791 81.5088 57.8751 81.0928 58.9151 81.0928C59.9551 81.0928 60.7511 81.5088 61.3031 82.3408C61.7671 83.0288 61.9991 83.9688 61.9991 85.1608C61.9991 86.3528 61.7671 87.2928 61.3031 87.9808C60.7511 88.8128 59.9551 89.2288 58.9151 89.2288C57.8751 89.2288 57.0791 88.8128 56.5271 87.9808ZM65.2316 82.6408C64.7756 83.1208 64.5476 83.9608 64.5476 85.1608C64.5476 86.3608 64.7756 87.2008 65.2316 87.6808C65.5516 88.0168 65.9636 88.1848 66.4676 88.1848C66.9716 88.1848 67.3836 88.0168 67.7036 87.6808C68.1596 87.2008 68.3876 86.3608 68.3876 85.1608C68.3876 83.9608 68.1596 83.1208 67.7036 82.6408C67.3836 82.3048 66.9716 82.1368 66.4676 82.1368C65.9636 82.1368 65.5516 82.3048 65.2316 82.6408ZM64.0796 87.9808C63.6156 87.2928 63.3836 86.3528 63.3836 85.1608C63.3836 83.9688 63.6156 83.0288 64.0796 82.3408C64.6316 81.5088 65.4276 81.0928 66.4676 81.0928C67.5076 81.0928 68.3036 81.5088 68.8556 82.3408C69.3196 83.0288 69.5516 83.9688 69.5516 85.1608C69.5516 86.3528 69.3196 87.2928 68.8556 87.9808C68.3036 88.8128 67.5076 89.2288 66.4676 89.2288C65.4276 89.2288 64.6316 88.8128 64.0796 87.9808Z" fill="#898CAA"/>
<path d="M82.3508 214.729L81.2948 215.101C81.2388 214.733 81.0588 214.401 80.7548 214.105C80.4508 213.801 80.0308 213.649 79.4948 213.649C79.0228 213.649 78.6308 213.785 78.3188 214.057C78.0068 214.329 77.8508 214.665 77.8508 215.065C77.8508 215.377 77.9428 215.641 78.1268 215.857C78.3188 216.073 78.5908 216.221 78.9428 216.301L80.2148 216.577C80.9188 216.729 81.4628 217.017 81.8468 217.441C82.2308 217.857 82.4228 218.365 82.4228 218.965C82.4228 219.653 82.1508 220.245 81.6068 220.741C81.0628 221.237 80.3548 221.485 79.4828 221.485C78.5308 221.485 77.7828 221.237 77.2388 220.741C76.7028 220.237 76.3908 219.641 76.3028 218.953L77.4308 218.593C77.4788 219.105 77.6788 219.537 78.0308 219.889C78.3828 220.241 78.8628 220.417 79.4708 220.417C80.0308 220.417 80.4628 220.289 80.7668 220.033C81.0708 219.777 81.2228 219.453 81.2228 219.061C81.2228 218.741 81.1148 218.465 80.8988 218.233C80.6828 217.993 80.3668 217.829 79.9508 217.741L78.7388 217.477C78.1068 217.341 77.6028 217.073 77.2268 216.673C76.8508 216.273 76.6628 215.765 76.6628 215.149C76.6628 214.477 76.9348 213.889 77.4788 213.385C78.0308 212.873 78.6948 212.617 79.4708 212.617C80.3428 212.617 81.0108 212.829 81.4748 213.253C81.9388 213.677 82.2308 214.169 82.3508 214.729ZM87.6594 220.609C87.5074 220.897 87.2754 221.117 86.9634 221.269C86.6514 221.413 86.3154 221.485 85.9554 221.485C85.2994 221.485 84.7754 221.269 84.3834 220.837C83.9914 220.397 83.7954 219.841 83.7954 219.169V215.533H84.9234V219.001C84.9234 219.433 85.0274 219.789 85.2354 220.069C85.4514 220.349 85.7834 220.489 86.2314 220.489C86.6794 220.489 87.0194 220.357 87.2514 220.093C87.4834 219.821 87.5994 219.461 87.5994 219.013V215.533H88.7274V220.237C88.7274 220.613 88.7474 220.969 88.7874 221.305H87.7074C87.6754 221.129 87.6594 220.897 87.6594 220.609ZM92.0203 217.969V221.305H90.8923V215.533H91.9963V216.361C92.3803 215.697 92.9723 215.365 93.7723 215.365C94.4363 215.365 94.9443 215.577 95.2963 216.001C95.6563 216.425 95.8363 216.973 95.8363 217.645V221.305H94.7083V217.837C94.7083 216.869 94.2603 216.385 93.3643 216.385C92.9403 216.385 92.6083 216.537 92.3683 216.841C92.1363 217.137 92.0203 217.513 92.0203 217.969Z" fill="#898CAA"/>
<path d="M133.346 221.305H132.182V214.681L129.278 221.305H128.198L125.318 214.681V221.305H124.154V212.797H125.75L128.75 219.721L131.774 212.797H133.346V221.305ZM136.817 219.937C137.169 220.297 137.597 220.477 138.101 220.477C138.605 220.477 139.029 220.297 139.373 219.937C139.725 219.569 139.901 219.061 139.901 218.413C139.901 217.773 139.725 217.273 139.373 216.913C139.029 216.545 138.605 216.361 138.101 216.361C137.597 216.361 137.169 216.545 136.817 216.913C136.473 217.273 136.301 217.773 136.301 218.413C136.301 219.061 136.473 219.569 136.817 219.937ZM135.977 216.229C136.537 215.645 137.245 215.353 138.101 215.353C138.957 215.353 139.661 215.645 140.213 216.229C140.773 216.805 141.053 217.533 141.053 218.413C141.053 219.301 140.777 220.037 140.225 220.621C139.673 221.197 138.965 221.485 138.101 221.485C137.237 221.485 136.529 221.197 135.977 220.621C135.425 220.037 135.149 219.301 135.149 218.413C135.149 217.533 135.425 216.805 135.977 216.229ZM143.864 217.969V221.305H142.736V215.533H143.84V216.361C144.224 215.697 144.816 215.365 145.616 215.365C146.28 215.365 146.788 215.577 147.14 216.001C147.5 216.425 147.68 216.973 147.68 217.645V221.305H146.552V217.837C146.552 216.869 146.104 216.385 145.208 216.385C144.784 216.385 144.452 216.537 144.212 216.841C143.98 217.137 143.864 217.513 143.864 217.969Z" fill="#898CAA"/>
<path d="M181.902 213.889H179.058V221.305H177.882V213.889H175.038V212.797H181.902V213.889ZM185.887 220.609C185.735 220.897 185.503 221.117 185.191 221.269C184.879 221.413 184.543 221.485 184.183 221.485C183.527 221.485 183.003 221.269 182.611 220.837C182.219 220.397 182.023 219.841 182.023 219.169V215.533H183.151V219.001C183.151 219.433 183.255 219.789 183.463 220.069C183.679 220.349 184.011 220.489 184.459 220.489C184.907 220.489 185.247 220.357 185.479 220.093C185.711 219.821 185.827 219.461 185.827 219.013V215.533H186.955V220.237C186.955 220.613 186.975 220.969 187.015 221.305H185.935C185.903 221.129 185.887 220.897 185.887 220.609ZM189.793 217.825H192.949C192.933 217.393 192.789 217.041 192.517 216.769C192.245 216.489 191.861 216.349 191.365 216.349C190.917 216.349 190.549 216.497 190.261 216.793C189.973 217.081 189.817 217.425 189.793 217.825ZM193.117 219.325L194.089 219.661C193.921 220.197 193.609 220.637 193.153 220.981C192.697 221.317 192.145 221.485 191.497 221.485C190.689 221.485 190.001 221.209 189.433 220.657C188.873 220.097 188.593 219.345 188.593 218.401C188.593 217.521 188.865 216.793 189.409 216.217C189.953 215.641 190.601 215.353 191.353 215.353C192.225 215.353 192.905 215.629 193.393 216.181C193.881 216.725 194.125 217.457 194.125 218.377C194.125 218.521 194.117 218.641 194.101 218.737H189.757C189.765 219.249 189.933 219.669 190.261 219.997C190.597 220.325 191.009 220.489 191.497 220.489C192.321 220.489 192.861 220.101 193.117 219.325Z" fill="#898CAA"/>
<path d="M229.98 218.257L231.36 212.797H233.304L230.988 221.305H229.032L227.22 215.665L225.396 221.305H223.404L221.088 212.797H223.104L224.508 218.245L226.272 212.797H228.216L229.98 218.257ZM235.369 217.609H237.757C237.741 217.337 237.633 217.101 237.433 216.901C237.241 216.701 236.949 216.601 236.557 216.601C236.205 216.601 235.925 216.705 235.717 216.913C235.509 217.121 235.393 217.353 235.369 217.609ZM237.889 219.157L239.413 219.589C239.261 220.141 238.945 220.597 238.465 220.957C237.985 221.309 237.385 221.485 236.665 221.485C235.801 221.485 235.065 221.197 234.457 220.621C233.857 220.045 233.557 219.273 233.557 218.305C233.557 217.377 233.849 216.621 234.433 216.037C235.025 215.453 235.725 215.161 236.533 215.161C237.461 215.161 238.189 215.433 238.717 215.977C239.253 216.513 239.521 217.261 239.521 218.221C239.521 218.525 239.509 218.713 239.485 218.785H235.333C235.349 219.113 235.489 219.389 235.753 219.613C236.017 219.829 236.329 219.937 236.689 219.937C237.305 219.937 237.705 219.677 237.889 219.157ZM246.8 212.617V220.237C246.8 220.597 246.816 220.953 246.848 221.305H245.096C245.064 221.113 245.048 220.921 245.048 220.729C244.904 220.937 244.688 221.109 244.4 221.245C244.12 221.373 243.804 221.437 243.452 221.437C242.604 221.437 241.9 221.145 241.34 220.561C240.78 219.969 240.5 219.217 240.5 218.305C240.5 217.409 240.772 216.669 241.316 216.085C241.86 215.493 242.552 215.197 243.392 215.197C244.208 215.197 244.744 215.401 245 215.809V212.617H246.8ZM242.72 217.225C242.464 217.481 242.336 217.845 242.336 218.317C242.336 218.789 242.464 219.157 242.72 219.421C242.984 219.677 243.304 219.805 243.68 219.805C244.056 219.805 244.372 219.677 244.628 219.421C244.892 219.157 245.024 218.789 245.024 218.317C245.024 217.845 244.892 217.481 244.628 217.225C244.372 216.969 244.056 216.841 243.68 216.841C243.304 216.841 242.984 216.969 242.72 217.225Z" fill="#0E1566"/>
<path d="M280.89 213.889H278.046V221.305H276.87V213.889H274.026V212.797H280.89V213.889ZM283.336 217.909V221.305H282.208V212.617H283.336V216.205C283.72 215.645 284.304 215.365 285.088 215.365C285.752 215.365 286.26 215.577 286.612 216.001C286.972 216.425 287.152 216.973 287.152 217.645V221.305H286.024V217.837C286.024 216.869 285.576 216.385 284.68 216.385C284.264 216.385 283.94 216.529 283.708 216.817C283.476 217.097 283.352 217.461 283.336 217.909ZM292.873 220.609C292.721 220.897 292.489 221.117 292.177 221.269C291.865 221.413 291.529 221.485 291.169 221.485C290.513 221.485 289.989 221.269 289.597 220.837C289.205 220.397 289.009 219.841 289.009 219.169V215.533H290.137V219.001C290.137 219.433 290.241 219.789 290.449 220.069C290.665 220.349 290.997 220.489 291.445 220.489C291.893 220.489 292.233 220.357 292.465 220.093C292.697 219.821 292.813 219.461 292.813 219.013V215.533H293.941V220.237C293.941 220.613 293.961 220.969 294.001 221.305H292.921C292.889 221.129 292.873 220.897 292.873 220.609Z" fill="#898CAA"/>
<path d="M322.821 221.305H321.645V212.797H326.817V213.889H322.821V216.625H326.445V217.729H322.821V221.305ZM331.274 215.473V216.673C331.106 216.649 330.942 216.637 330.782 216.637C329.726 216.637 329.198 217.229 329.198 218.413V221.305H328.07V215.533H329.174V216.541C329.526 215.805 330.102 215.437 330.902 215.437C331.03 215.437 331.154 215.449 331.274 215.473ZM333.832 221.305H332.716V215.533H333.832V221.305ZM332.692 213.925C332.54 213.765 332.464 213.573 332.464 213.349C332.464 213.125 332.54 212.933 332.692 212.773C332.852 212.613 333.044 212.533 333.268 212.533C333.492 212.533 333.684 212.613 333.844 212.773C334.004 212.925 334.084 213.117 334.084 213.349C334.084 213.573 334.004 213.765 333.844 213.925C333.684 214.077 333.492 214.153 333.268 214.153C333.044 214.153 332.852 214.077 332.692 213.925Z" fill="#898CAA"/>
<path d="M366.709 214.729L365.653 215.101C365.597 214.733 365.417 214.401 365.113 214.105C364.809 213.801 364.389 213.649 363.853 213.649C363.381 213.649 362.989 213.785 362.677 214.057C362.365 214.329 362.209 214.665 362.209 215.065C362.209 215.377 362.301 215.641 362.485 215.857C362.677 216.073 362.949 216.221 363.301 216.301L364.573 216.577C365.277 216.729 365.821 217.017 366.205 217.441C366.589 217.857 366.781 218.365 366.781 218.965C366.781 219.653 366.509 220.245 365.965 220.741C365.421 221.237 364.713 221.485 363.841 221.485C362.889 221.485 362.141 221.237 361.597 220.741C361.061 220.237 360.749 219.641 360.661 218.953L361.789 218.593C361.837 219.105 362.037 219.537 362.389 219.889C362.741 220.241 363.221 220.417 363.829 220.417C364.389 220.417 364.821 220.289 365.125 220.033C365.429 219.777 365.581 219.453 365.581 219.061C365.581 218.741 365.473 218.465 365.257 218.233C365.041 217.993 364.725 217.829 364.309 217.741L363.097 217.477C362.465 217.341 361.961 217.073 361.585 216.673C361.209 216.273 361.021 215.765 361.021 215.149C361.021 214.477 361.293 213.889 361.837 213.385C362.389 212.873 363.053 212.617 363.829 212.617C364.701 212.617 365.369 212.829 365.833 213.253C366.297 213.677 366.589 214.169 366.709 214.729ZM368.1 219.757C368.1 219.261 368.26 218.865 368.58 218.569C368.9 218.265 369.324 218.077 369.852 218.005L371.412 217.777C371.708 217.737 371.856 217.593 371.856 217.345C371.856 217.041 371.752 216.793 371.544 216.601C371.336 216.409 371.024 216.313 370.608 216.313C370.224 216.313 369.92 216.421 369.696 216.637C369.472 216.845 369.34 217.125 369.3 217.477L368.22 217.225C368.276 216.673 368.528 216.225 368.976 215.881C369.424 215.529 369.96 215.353 370.584 215.353C371.4 215.353 372.004 215.553 372.396 215.953C372.788 216.345 372.984 216.849 372.984 217.465V220.357C372.984 220.701 373.008 221.017 373.056 221.305H371.952C371.912 221.065 371.892 220.805 371.892 220.525C371.732 220.781 371.496 221.005 371.184 221.197C370.88 221.389 370.496 221.485 370.032 221.485C369.464 221.485 369 221.317 368.64 220.981C368.28 220.637 368.1 220.229 368.1 219.757ZM370.188 220.537C370.692 220.537 371.096 220.401 371.4 220.129C371.704 219.857 371.856 219.425 371.856 218.833V218.569L370.092 218.833C369.836 218.873 369.632 218.965 369.48 219.109C369.328 219.253 369.252 219.449 369.252 219.697C369.252 219.921 369.336 220.117 369.504 220.285C369.68 220.453 369.908 220.537 370.188 220.537ZM376.493 213.709V215.533H377.741V216.553H376.493V219.553C376.493 219.825 376.553 220.025 376.673 220.153C376.801 220.281 377.009 220.345 377.297 220.345C377.465 220.345 377.613 220.329 377.741 220.297V221.257C377.549 221.329 377.293 221.365 376.973 221.365C376.477 221.365 376.085 221.221 375.797 220.933C375.509 220.645 375.365 220.241 375.365 219.721V216.553H374.261V215.533H374.573C374.869 215.533 375.089 215.453 375.233 215.293C375.385 215.125 375.461 214.909 375.461 214.645V213.709H376.493Z" fill="#898CAA"/>
<path d="M92.5233 160.626C92.5233 160.626 117.318 148.305 135.644 147.846C155.57 147.348 163.354 160.626 183.289 160.626C206.66 160.626 209.544 104.602 234.379 104.602C253.945 104.602 263.863 146.85 283.295 146.85C303.405 146.85 317.82 117.001 337.646 117.001C354.494 117.001 379.496 117.001 379.496 117.001" stroke="#7DC6FA" stroke-width="3" stroke-linecap="round" stroke-linejoin="round"/>
<ellipse cx="284.066" cy="148.731" rx="10.3045" ry="9.85644" fill="#0095FF"/>
<g filter="url(#filter1_d_969_3980)">
<path d="M184.157 138.123C184.157 132.6 188.634 128.123 194.157 128.123H256.149C261.672 128.123 266.149 132.6 266.149 138.123V139.86C266.149 143.15 267.767 146.229 270.476 148.095L272.981 149.821L270.382 151.612C267.732 153.438 266.149 156.45 266.149 159.669C266.149 165.072 261.768 169.453 256.365 169.453H194.157C188.634 169.453 184.157 164.976 184.157 159.453V138.123Z" fill="white"/>
</g>
<path d="M216.156 149.848L215.484 148.714L218.158 146.25H213.818V144.99H219.978V146.222L217.388 148.616C218.125 148.616 218.774 148.859 219.334 149.344C219.903 149.83 220.188 150.506 220.188 151.374C220.188 152.177 219.894 152.863 219.306 153.432C218.718 154.002 217.915 154.287 216.898 154.287C215.899 154.287 215.097 154.011 214.49 153.46C213.893 152.9 213.571 152.224 213.524 151.43L214.868 151.122C214.896 151.71 215.097 152.186 215.47 152.55C215.853 152.905 216.324 153.082 216.884 153.082C217.481 153.082 217.948 152.924 218.284 152.606C218.629 152.28 218.802 151.878 218.802 151.402C218.802 150.852 218.62 150.432 218.256 150.142C217.892 149.853 217.458 149.708 216.954 149.708C216.683 149.708 216.417 149.755 216.156 149.848ZM223.88 146.586C223.348 147.146 223.082 148.126 223.082 149.526C223.082 150.926 223.348 151.906 223.88 152.466C224.254 152.858 224.734 153.054 225.322 153.054C225.91 153.054 226.391 152.858 226.764 152.466C227.296 151.906 227.562 150.926 227.562 149.526C227.562 148.126 227.296 147.146 226.764 146.586C226.391 146.194 225.91 145.998 225.322 145.998C224.734 145.998 224.254 146.194 223.88 146.586ZM222.536 152.816C221.995 152.014 221.724 150.917 221.724 149.526C221.724 148.136 221.995 147.039 222.536 146.236C223.18 145.266 224.109 144.78 225.322 144.78C226.536 144.78 227.464 145.266 228.108 146.236C228.65 147.039 228.92 148.136 228.92 149.526C228.92 150.917 228.65 152.014 228.108 152.816C227.464 153.787 226.536 154.273 225.322 154.273C224.109 154.273 223.18 153.787 222.536 152.816ZM232.692 146.586C232.16 147.146 231.894 148.126 231.894 149.526C231.894 150.926 232.16 151.906 232.692 152.466C233.065 152.858 233.546 153.054 234.134 153.054C234.722 153.054 235.202 152.858 235.576 152.466C236.108 151.906 236.374 150.926 236.374 149.526C236.374 148.126 236.108 147.146 235.576 146.586C235.202 146.194 234.722 145.998 234.134 145.998C233.546 145.998 233.065 146.194 232.692 146.586ZM231.348 152.816C230.806 152.014 230.536 150.917 230.536 149.526C230.536 148.136 230.806 147.039 231.348 146.236C231.992 145.266 232.92 144.78 234.134 144.78C235.347 144.78 236.276 145.266 236.92 146.236C237.461 147.039 237.732 148.136 237.732 149.526C237.732 150.917 237.461 152.014 236.92 152.816C236.276 153.787 235.347 154.273 234.134 154.273C232.92 154.273 231.992 153.787 231.348 152.816Z" fill="#0E1566"/>
<path d="M284.514 206.46V159.934" stroke="#F4F6FD" stroke-width="1.5"/>
<path d="M43.74 49.438H45.593C46.171 49.438 46.63 49.285 46.97 48.979C47.31 48.6617 47.48 48.2423 47.48 47.721C47.48 47.1883 47.31 46.769 46.97 46.463C46.6413 46.1457 46.1823 45.987 45.593 45.987H43.74V49.438ZM45.882 51.461H43.723V56H41.377V43.947H45.882C47.0607 43.947 48.0127 44.2983 48.738 45.001C49.4747 45.7037 49.843 46.6047 49.843 47.704C49.843 48.8033 49.4747 49.7043 48.738 50.407C48.0127 51.1097 47.0607 51.461 45.882 51.461ZM56.4174 47.602V49.88C56.1907 49.8347 55.964 49.812 55.7374 49.812C55.0914 49.812 54.57 49.999 54.1734 50.373C53.7767 50.7357 53.5784 51.3363 53.5784 52.175V56H51.3174V47.636H53.5104V48.877C53.9184 48.0043 54.7117 47.568 55.8904 47.568C56.015 47.568 56.1907 47.5793 56.4174 47.602ZM60.1688 53.569C60.5881 53.9883 61.0924 54.198 61.6818 54.198C62.2711 54.198 62.7698 53.9883 63.1778 53.569C63.5971 53.1497 63.8068 52.566 63.8068 51.818C63.8068 51.07 63.5971 50.4863 63.1778 50.067C62.7698 49.6477 62.2711 49.438 61.6818 49.438C61.0924 49.438 60.5881 49.6477 60.1688 50.067C59.7608 50.4863 59.5568 51.07 59.5568 51.818C59.5568 52.566 59.7608 53.1497 60.1688 53.569ZM58.5368 48.639C59.3754 47.8003 60.4238 47.381 61.6818 47.381C62.9398 47.381 63.9824 47.8003 64.8098 48.639C65.6484 49.4777 66.0678 50.5373 66.0678 51.818C66.0678 53.0987 65.6484 54.1583 64.8098 54.997C63.9824 55.8357 62.9398 56.255 61.6818 56.255C60.4238 56.255 59.3754 55.8357 58.5368 54.997C57.7094 54.1583 57.2958 53.0987 57.2958 51.818C57.2958 50.5373 57.7094 49.4777 58.5368 48.639ZM67.1385 53.671L69.0765 53.246C69.0992 53.6087 69.2408 53.9147 69.5015 54.164C69.7735 54.402 70.1418 54.521 70.6065 54.521C70.9578 54.521 71.2298 54.4417 71.4225 54.283C71.6152 54.1243 71.7115 53.926 71.7115 53.688C71.7115 53.2687 71.4112 52.9967 70.8105 52.872L69.7055 52.617C68.9235 52.447 68.3342 52.141 67.9375 51.699C67.5522 51.257 67.3595 50.73 67.3595 50.118C67.3595 49.3587 67.6542 48.7127 68.2435 48.18C68.8442 47.6473 69.5922 47.381 70.4875 47.381C71.0542 47.381 71.5528 47.466 71.9835 47.636C72.4142 47.7947 72.7485 48.0043 72.9865 48.265C73.2245 48.5143 73.4058 48.7693 73.5305 49.03C73.6552 49.2907 73.7345 49.5457 73.7685 49.795L71.8815 50.22C71.8362 49.9253 71.7002 49.6647 71.4735 49.438C71.2582 49.2113 70.9352 49.098 70.5045 49.098C70.2098 49.098 69.9548 49.1773 69.7395 49.336C69.5355 49.4947 69.4335 49.693 69.4335 49.931C69.4335 50.339 69.6885 50.5883 70.1985 50.679L71.3885 50.934C72.1932 51.104 72.8052 51.4157 73.2245 51.869C73.6552 52.3223 73.8705 52.8663 73.8705 53.501C73.8705 54.249 73.5872 54.895 73.0205 55.439C72.4538 55.983 71.6548 56.255 70.6235 56.255C70.0342 56.255 69.5072 56.17 69.0425 56C68.5778 55.8187 68.2152 55.592 67.9545 55.32C67.7052 55.0367 67.5125 54.759 67.3765 54.487C67.2518 54.2037 67.1725 53.9317 67.1385 53.671ZM77.9494 59.23H75.6884V47.636H77.8814V48.656C78.0854 48.316 78.4141 48.0327 78.8674 47.806C79.3208 47.568 79.8478 47.449 80.4484 47.449C81.6384 47.449 82.5791 47.857 83.2704 48.673C83.9618 49.4777 84.3074 50.5203 84.3074 51.801C84.3074 53.0817 83.9391 54.1357 83.2024 54.963C82.4771 55.7903 81.5308 56.204 80.3634 56.204C79.2528 56.204 78.4481 55.864 77.9494 55.184V59.23ZM81.4854 53.552C81.8821 53.1213 82.0804 52.5433 82.0804 51.818C82.0804 51.0927 81.8821 50.5203 81.4854 50.101C81.1001 49.6817 80.6071 49.472 80.0064 49.472C79.4058 49.472 78.9071 49.6873 78.5104 50.118C78.1138 50.5373 77.9154 51.104 77.9154 51.818C77.9154 52.532 78.1138 53.1043 78.5104 53.535C78.9071 53.9657 79.4058 54.181 80.0064 54.181C80.6071 54.181 81.1001 53.9713 81.4854 53.552ZM87.7466 50.866H91.4866C91.464 50.4013 91.294 50.0103 90.9766 49.693C90.6706 49.3757 90.2173 49.217 89.6166 49.217C89.0726 49.217 88.6306 49.387 88.2906 49.727C87.9506 50.067 87.7693 50.4467 87.7466 50.866ZM91.7076 53.042L93.5946 53.603C93.368 54.3737 92.9203 55.0083 92.2516 55.507C91.5943 56.0057 90.7726 56.255 89.7866 56.255C88.5853 56.255 87.5653 55.8527 86.7266 55.048C85.888 54.232 85.4686 53.144 85.4686 51.784C85.4686 50.492 85.8766 49.438 86.6926 48.622C87.5086 47.7947 88.472 47.381 89.5826 47.381C90.8746 47.381 91.8833 47.7663 92.6086 48.537C93.3453 49.3077 93.7136 50.3673 93.7136 51.716C93.7136 51.8067 93.708 51.9087 93.6966 52.022C93.6966 52.1353 93.6966 52.226 93.6966 52.294L93.6796 52.413H87.6956C87.7183 52.957 87.9336 53.4103 88.3416 53.773C88.7496 54.1357 89.237 54.317 89.8036 54.317C90.767 54.317 91.4016 53.892 91.7076 53.042ZM99.2511 49.472C98.6504 49.472 98.1461 49.6817 97.7381 50.101C97.3301 50.5203 97.1261 51.0927 97.1261 51.818C97.1261 52.5433 97.3301 53.1213 97.7381 53.552C98.1574 53.9713 98.6674 54.181 99.2681 54.181C99.8008 54.181 100.226 54.045 100.543 53.773C100.86 53.4897 101.076 53.1553 101.189 52.77L103.178 53.433C102.974 54.2037 102.532 54.8667 101.852 55.422C101.172 55.9773 100.311 56.255 99.2681 56.255C98.0214 56.255 96.9731 55.8357 96.1231 54.997C95.2844 54.147 94.8651 53.0873 94.8651 51.818C94.8651 50.5373 95.2788 49.4777 96.1061 48.639C96.9448 47.8003 97.9761 47.381 99.2001 47.381C100.265 47.381 101.138 47.6587 101.818 48.214C102.498 48.758 102.934 49.421 103.127 50.203L101.104 50.883C100.832 49.9423 100.214 49.472 99.2511 49.472ZM107.629 45.137V47.636H109.312V49.642H107.629V53.144C107.629 53.4953 107.708 53.7447 107.867 53.892C108.025 54.0393 108.275 54.113 108.615 54.113C108.921 54.113 109.153 54.0903 109.312 54.045V55.915C108.983 56.051 108.558 56.119 108.037 56.119C107.221 56.119 106.575 55.8923 106.099 55.439C105.623 54.9743 105.385 54.3397 105.385 53.535V49.642H103.872V47.636H104.297C104.716 47.636 105.033 47.517 105.249 47.279C105.475 47.0297 105.589 46.7067 105.589 46.31V45.137H107.629ZM121.01 56.255C119.276 56.255 117.814 55.677 116.624 54.521C115.434 53.365 114.839 51.852 114.839 49.982C114.839 48.1233 115.439 46.6103 116.641 45.443C117.853 44.2757 119.298 43.692 120.976 43.692C122.517 43.692 123.752 44.083 124.682 44.865C125.622 45.647 126.229 46.5877 126.501 47.687L124.291 48.384C124.121 47.704 123.764 47.1317 123.22 46.667C122.676 46.191 121.928 45.953 120.976 45.953C119.99 45.953 119.123 46.3043 118.375 47.007C117.638 47.7097 117.27 48.7013 117.27 49.982C117.27 51.206 117.632 52.175 118.358 52.889C119.094 53.603 119.978 53.96 121.01 53.96C121.95 53.96 122.698 53.7163 123.254 53.229C123.82 52.7417 124.2 52.1637 124.393 51.495L126.586 52.158C126.461 52.6453 126.257 53.1213 125.974 53.586C125.702 54.0507 125.345 54.487 124.903 54.895C124.461 55.303 123.9 55.6317 123.22 55.881C122.551 56.1303 121.814 56.255 121.01 56.255ZM130.327 53.569C130.746 53.9883 131.251 54.198 131.84 54.198C132.429 54.198 132.928 53.9883 133.336 53.569C133.755 53.1497 133.965 52.566 133.965 51.818C133.965 51.07 133.755 50.4863 133.336 50.067C132.928 49.6477 132.429 49.438 131.84 49.438C131.251 49.438 130.746 49.6477 130.327 50.067C129.919 50.4863 129.715 51.07 129.715 51.818C129.715 52.566 129.919 53.1497 130.327 53.569ZM128.695 48.639C129.534 47.8003 130.582 47.381 131.84 47.381C133.098 47.381 134.141 47.8003 134.968 48.639C135.807 49.4777 136.226 50.5373 136.226 51.818C136.226 53.0987 135.807 54.1583 134.968 54.997C134.141 55.8357 133.098 56.255 131.84 56.255C130.582 56.255 129.534 55.8357 128.695 54.997C127.868 54.1583 127.454 53.0987 127.454 51.818C127.454 50.5373 127.868 49.4777 128.695 48.639ZM140.272 51.189V56H138.011V47.636H140.204V48.673C140.442 48.265 140.782 47.9533 141.224 47.738C141.666 47.5227 142.13 47.415 142.618 47.415C143.604 47.415 144.352 47.7267 144.862 48.35C145.383 48.962 145.644 49.7553 145.644 50.73V56H143.383V51.121C143.383 50.6223 143.252 50.22 142.992 49.914C142.742 49.608 142.357 49.455 141.836 49.455C141.36 49.455 140.98 49.6193 140.697 49.948C140.413 50.2767 140.272 50.6903 140.272 51.189ZM155.677 47.636L152.43 56H150.169L146.752 47.636H149.234L151.308 53.246L153.297 47.636H155.677ZM158.453 50.866H162.193C162.17 50.4013 162 50.0103 161.683 49.693C161.377 49.3757 160.923 49.217 160.323 49.217C159.779 49.217 159.337 49.387 158.997 49.727C158.657 50.067 158.475 50.4467 158.453 50.866ZM162.414 53.042L164.301 53.603C164.074 54.3737 163.626 55.0083 162.958 55.507C162.3 56.0057 161.479 56.255 160.493 56.255C159.291 56.255 158.271 55.8527 157.433 55.048C156.594 54.232 156.175 53.144 156.175 51.784C156.175 50.492 156.583 49.438 157.399 48.622C158.215 47.7947 159.178 47.381 160.289 47.381C161.581 47.381 162.589 47.7663 163.315 48.537C164.051 49.3077 164.42 50.3673 164.42 51.716C164.42 51.8067 164.414 51.9087 164.403 52.022C164.403 52.1353 164.403 52.226 164.403 52.294L164.386 52.413H158.402C158.424 52.957 158.64 53.4103 159.048 53.773C159.456 54.1357 159.943 54.317 160.51 54.317C161.473 54.317 162.108 53.892 162.414 53.042ZM171.3 47.602V49.88C171.073 49.8347 170.847 49.812 170.62 49.812C169.974 49.812 169.453 49.999 169.056 50.373C168.659 50.7357 168.461 51.3363 168.461 52.175V56H166.2V47.636H168.393V48.877C168.801 48.0043 169.594 47.568 170.773 47.568C170.898 47.568 171.073 47.5793 171.3 47.602ZM172.226 53.671L174.164 53.246C174.187 53.6087 174.329 53.9147 174.589 54.164C174.861 54.402 175.23 54.521 175.694 54.521C176.046 54.521 176.318 54.4417 176.51 54.283C176.703 54.1243 176.799 53.926 176.799 53.688C176.799 53.2687 176.499 52.9967 175.898 52.872L174.793 52.617C174.011 52.447 173.422 52.141 173.025 51.699C172.64 51.257 172.447 50.73 172.447 50.118C172.447 49.3587 172.742 48.7127 173.331 48.18C173.932 47.6473 174.68 47.381 175.575 47.381C176.142 47.381 176.641 47.466 177.071 47.636C177.502 47.7947 177.836 48.0043 178.074 48.265C178.312 48.5143 178.494 48.7693 178.618 49.03C178.743 49.2907 178.822 49.5457 178.856 49.795L176.969 50.22C176.924 49.9253 176.788 49.6647 176.561 49.438C176.346 49.2113 176.023 49.098 175.592 49.098C175.298 49.098 175.043 49.1773 174.827 49.336C174.623 49.4947 174.521 49.693 174.521 49.931C174.521 50.339 174.776 50.5883 175.286 50.679L176.476 50.934C177.281 51.104 177.893 51.4157 178.312 51.869C178.743 52.3223 178.958 52.8663 178.958 53.501C178.958 54.249 178.675 54.895 178.108 55.439C177.542 55.983 176.743 56.255 175.711 56.255C175.122 56.255 174.595 56.17 174.13 56C173.666 55.8187 173.303 55.592 173.042 55.32C172.793 55.0367 172.6 54.759 172.464 54.487C172.34 54.2037 172.26 53.9317 172.226 53.671ZM183.037 56H180.776V47.636H183.037V56ZM180.504 44.899C180.504 44.5137 180.64 44.185 180.912 43.913C181.184 43.6297 181.513 43.488 181.898 43.488C182.284 43.488 182.612 43.624 182.884 43.896C183.156 44.168 183.292 44.5023 183.292 44.899C183.292 45.273 183.156 45.596 182.884 45.868C182.612 46.14 182.284 46.276 181.898 46.276C181.513 46.276 181.184 46.14 180.912 45.868C180.64 45.596 180.504 45.273 180.504 44.899ZM187.702 53.569C188.121 53.9883 188.626 54.198 189.215 54.198C189.804 54.198 190.303 53.9883 190.711 53.569C191.13 53.1497 191.34 52.566 191.34 51.818C191.34 51.07 191.13 50.4863 190.711 50.067C190.303 49.6477 189.804 49.438 189.215 49.438C188.626 49.438 188.121 49.6477 187.702 50.067C187.294 50.4863 187.09 51.07 187.09 51.818C187.09 52.566 187.294 53.1497 187.702 53.569ZM186.07 48.639C186.909 47.8003 187.957 47.381 189.215 47.381C190.473 47.381 191.516 47.8003 192.343 48.639C193.182 49.4777 193.601 50.5373 193.601 51.818C193.601 53.0987 193.182 54.1583 192.343 54.997C191.516 55.8357 190.473 56.255 189.215 56.255C187.957 56.255 186.909 55.8357 186.07 54.997C185.243 54.1583 184.829 53.0987 184.829 51.818C184.829 50.5373 185.243 49.4777 186.07 48.639ZM197.647 51.189V56H195.386V47.636H197.579V48.673C197.817 48.265 198.157 47.9533 198.599 47.738C199.041 47.5227 199.505 47.415 199.993 47.415C200.979 47.415 201.727 47.7267 202.237 48.35C202.758 48.962 203.019 49.7553 203.019 50.73V56H200.758V51.121C200.758 50.6223 200.627 50.22 200.367 49.914C200.117 49.608 199.732 49.455 199.211 49.455C198.735 49.455 198.355 49.6193 198.072 49.948C197.788 50.2767 197.647 50.6903 197.647 51.189Z" fill="#222B45"/>
<path d="M335.948 47.82H333.578V54H332.598V47.82H330.228V46.91H335.948V47.82ZM337.089 52.86C337.382 53.16 337.739 53.31 338.159 53.31C338.579 53.31 338.932 53.16 339.219 52.86C339.512 52.5533 339.659 52.13 339.659 51.59C339.659 51.0567 339.512 50.64 339.219 50.34C338.932 50.0333 338.579 49.88 338.159 49.88C337.739 49.88 337.382 50.0333 337.089 50.34C336.802 50.64 336.659 51.0567 336.659 51.59C336.659 52.13 336.802 52.5533 337.089 52.86ZM336.389 49.77C336.856 49.2833 337.446 49.04 338.159 49.04C338.872 49.04 339.459 49.2833 339.919 49.77C340.386 50.25 340.619 50.8567 340.619 51.59C340.619 52.33 340.389 52.9433 339.929 53.43C339.469 53.91 338.879 54.15 338.159 54.15C337.439 54.15 336.849 53.91 336.389 53.43C335.929 52.9433 335.699 52.33 335.699 51.59C335.699 50.8567 335.929 50.25 336.389 49.77ZM342.582 51.58C342.582 52.0867 342.705 52.5 342.952 52.82C343.205 53.14 343.552 53.3 343.992 53.3C344.412 53.3 344.748 53.1367 345.002 52.81C345.255 52.4833 345.382 52.0667 345.382 51.56C345.382 51.06 345.258 50.6567 345.012 50.35C344.765 50.0433 344.428 49.89 344.002 49.89C343.575 49.89 343.232 50.0467 342.972 50.36C342.712 50.6733 342.582 51.08 342.582 51.58ZM345.392 53.35V53.27C345.265 53.5167 345.072 53.7233 344.812 53.89C344.558 54.05 344.255 54.13 343.902 54.13C343.215 54.13 342.662 53.89 342.242 53.41C341.828 52.9233 341.622 52.3133 341.622 51.58C341.622 50.88 341.835 50.2867 342.262 49.8C342.688 49.3067 343.235 49.06 343.902 49.06C344.295 49.06 344.615 49.14 344.862 49.3C345.108 49.4533 345.278 49.6433 345.372 49.87V46.76H346.302V53.11C346.302 53.4367 346.318 53.7333 346.352 54H345.442C345.408 53.8133 345.392 53.5967 345.392 53.35ZM347.801 52.71C347.801 52.2967 347.934 51.9667 348.201 51.72C348.467 51.4667 348.821 51.31 349.261 51.25L350.561 51.06C350.807 51.0267 350.931 50.9067 350.931 50.7C350.931 50.4467 350.844 50.24 350.671 50.08C350.497 49.92 350.237 49.84 349.891 49.84C349.571 49.84 349.317 49.93 349.131 50.11C348.944 50.2833 348.834 50.5167 348.801 50.81L347.901 50.6C347.947 50.14 348.157 49.7667 348.531 49.48C348.904 49.1867 349.351 49.04 349.871 49.04C350.551 49.04 351.054 49.2067 351.381 49.54C351.707 49.8667 351.871 50.2867 351.871 50.8V53.21C351.871 53.4967 351.891 53.76 351.931 54H351.011C350.977 53.8 350.961 53.5833 350.961 53.35C350.827 53.5633 350.631 53.75 350.371 53.91C350.117 54.07 349.797 54.15 349.411 54.15C348.937 54.15 348.551 54.01 348.251 53.73C347.951 53.4433 347.801 53.1033 347.801 52.71ZM349.541 53.36C349.961 53.36 350.297 53.2467 350.551 53.02C350.804 52.7933 350.931 52.4333 350.931 51.94V51.72L349.461 51.94C349.247 51.9733 349.077 52.05 348.951 52.17C348.824 52.29 348.761 52.4533 348.761 52.66C348.761 52.8467 348.831 53.01 348.971 53.15C349.117 53.29 349.307 53.36 349.541 53.36ZM354.637 56.01H353.607L354.807 53.47L352.737 49.19H353.817L355.317 52.51L356.757 49.19H357.767L354.637 56.01Z" fill="#898CAA"/>
<path d="M365.5 55.5112C365.397 55.5112 365.294 55.4733 365.213 55.392L361.925 52.1041C361.768 51.947 361.768 51.687 361.925 51.5299C362.082 51.3728 362.342 51.3728 362.499 51.5299L365.5 54.5308L368.501 51.5299C368.658 51.3728 368.918 51.3728 369.075 51.5299C369.232 51.687 369.232 51.947 369.075 52.1041L365.787 55.392C365.706 55.4733 365.603 55.5112 365.5 55.5112Z" fill="#62686D"/>
<path d="M365.5 55.419C365.278 55.419 365.094 55.2348 365.094 55.0127V45.8965C365.094 45.6744 365.278 45.4902 365.5 45.4902C365.722 45.4902 365.906 45.6744 365.906 45.8965V55.0127C365.906 55.2348 365.722 55.419 365.5 55.419Z" fill="#62686D"/>
<defs>
<filter id="filter0_d_969_3980" x="0" y="0" width="430" height="274" filterUnits="userSpaceOnUse" color-interpolation-filters="sRGB">
<feFlood flood-opacity="0" result="BackgroundImageFix"/>
<feColorMatrix in="SourceAlpha" type="matrix" values="0 0 0 0 0 0 0 0 0 0 0 0 0 0 0 0 0 0 127 0" result="hardAlpha"/>
<feOffset dy="4"/>
<feGaussianBlur stdDeviation="10"/>
<feColorMatrix type="matrix" values="0 0 0 0 0.93198 0 0 0 0 0.93198 0 0 0 0 0.93198 0 0 0 0.501967 0"/>
<feBlend mode="normal" in2="BackgroundImageFix" result="effect1_dropShadow_969_3980"/>
<feBlend mode="normal" in="SourceGraphic" in2="effect1_dropShadow_969_3980" result="shape"/>
</filter>
<filter id="filter1_d_969_3980" x="139.157" y="88.123" width="178.825" height="131.33" filterUnits="userSpaceOnUse" color-interpolation-filters="sRGB">
<feFlood flood-opacity="0" result="BackgroundImageFix"/>
<feColorMatrix in="SourceAlpha" type="matrix" values="0 0 0 0 0 0 0 0 0 0 0 0 0 0 0 0 0 0 127 0" result="hardAlpha"/>
<feOffset dy="5"/>
<feGaussianBlur stdDeviation="22.5"/>
<feColorMatrix type="matrix" values="0 0 0 0 0.0067361 0 0 0 0 0.0941708 0 0 0 0 0.404167 0 0 0 0.1 0"/>
<feBlend mode="normal" in2="BackgroundImageFix" result="effect1_dropShadow_969_3980"/>
<feBlend mode="normal" in="SourceGraphic" in2="effect1_dropShadow_969_3980" result="shape"/>
</filter>
</defs>
</svg>
