<svg width="24" height="23" viewBox="0 0 24 23" fill="none" xmlns="http://www.w3.org/2000/svg">
<path d="M12 23C9.62663 23 7.30655 22.3255 5.33316 21.0619C3.35977 19.7983 1.8217 18.0022 0.913451 15.9009C0.00519941 13.7995 -0.232441 11.4872 0.230582 9.25646C0.693605 7.02568 1.83649 4.97658 3.51472 3.36828C5.19295 1.75997 7.33115 0.664705 9.65892 0.220976C11.9867 -0.222755 14.3995 0.0049839 16.5922 0.875391C18.7849 1.7458 20.6591 3.21978 21.9776 5.11095C23.2962 7.00211 24 9.22552 24 11.5C24 14.55 22.7357 17.4751 20.4853 19.6317C18.2348 21.7884 15.1826 23 12 23ZM16.3477 12.6412C16.2619 12.5582 16.1598 12.4924 16.0473 12.4475C15.9348 12.4026 15.8142 12.3795 15.6923 12.3795C15.5705 12.3795 15.4498 12.4026 15.3373 12.4475C15.2248 12.4924 15.1227 12.5582 15.0369 12.6412L12.9231 14.6758V6.19231C12.9231 5.9577 12.8258 5.73269 12.6527 5.56679C12.4796 5.4009 12.2448 5.3077 12 5.3077C11.7552 5.3077 11.5204 5.4009 11.3473 5.56679C11.1742 5.73269 11.0769 5.9577 11.0769 6.19231V14.6758L8.96308 12.6412C8.78926 12.4746 8.55351 12.381 8.3077 12.381C8.06188 12.381 7.82613 12.4746 7.65231 12.6412C7.47849 12.8077 7.38084 13.0337 7.38084 13.2692C7.38084 13.5048 7.47849 13.7307 7.65231 13.8973L11.3446 17.4358C11.4324 17.5163 11.5359 17.5794 11.6492 17.6215C11.874 17.71 12.126 17.71 12.3508 17.6215C12.4641 17.5794 12.5676 17.5163 12.6554 17.4358L16.3477 13.8973C16.4342 13.8151 16.5029 13.7172 16.5497 13.6094C16.5966 13.5016 16.6207 13.386 16.6207 13.2692C16.6207 13.1525 16.5966 13.0368 16.5497 12.929C16.5029 12.8212 16.4342 12.7234 16.3477 12.6412Z" fill="#E30000"/>
</svg>
