<svg width="40" height="47" viewBox="0 0 40 47" fill="none" xmlns="http://www.w3.org/2000/svg">
<path d="M32.3625 25.89C33.096 25.89 33.808 25.9763 34.52 26.0841V19.4175C34.52 18.2731 34.0653 17.1755 33.2561 16.3663C32.4469 15.5571 31.3494 15.1025 30.205 15.1025H28.0475V10.7875C28.0475 4.83279 23.2147 0 17.26 0C11.3053 0 6.47249 4.83279 6.47249 10.7875V15.1025H4.31499C3.17059 15.1025 2.07305 15.5571 1.26383 16.3663C0.454614 17.1755 0 18.2731 0 19.4175V40.9924C0 43.3873 1.92017 45.3074 4.31499 45.3074H21.165C20.0647 43.4088 19.4175 41.2082 19.4175 38.8349C19.4175 31.6936 25.2211 25.89 32.3625 25.89ZM10.7875 10.7875C10.7875 7.20604 13.6785 4.31499 17.26 4.31499C20.8414 4.31499 23.7325 7.20604 23.7325 10.7875V15.1025H10.7875V10.7875ZM17.26 34.52C16.4066 34.52 15.5723 34.2669 14.8627 33.7927C14.1531 33.3186 13.6 32.6447 13.2734 31.8562C12.9468 31.0678 12.8614 30.2002 13.0279 29.3631C13.1944 28.5261 13.6054 27.7573 14.2088 27.1538C14.8123 26.5503 15.5811 26.1394 16.4182 25.9729C17.2552 25.8064 18.1228 25.8918 18.9113 26.2184C19.6997 26.545 20.3736 27.0981 20.8478 27.8077C21.3219 28.5173 21.575 29.3515 21.575 30.205C21.575 32.5998 19.6548 34.52 17.26 34.52ZM35.4045 38.8349L40 43.4088L36.9364 46.4725L32.3625 41.877L27.7886 46.4725L24.7465 43.4088L29.3204 38.8349L24.7465 34.2611L27.7886 31.219L32.3625 35.7929L36.9364 31.219L40 34.2611L35.4045 38.8349Z" fill="#585858"/>
</svg>
