<svg width="32" height="32" viewBox="0 0 32 32" fill="none" xmlns="http://www.w3.org/2000/svg">
<circle cx="16" cy="16" r="16" fill="#F66B22"/>
<path d="M15.256 14.464H16.96C17.464 14.464 17.864 14.336 18.16 14.08C18.456 13.816 18.604 13.464 18.604 13.024C18.604 12.576 18.456 12.22 18.16 11.956C17.864 11.684 17.464 11.548 16.96 11.548H15.256V14.464ZM17.176 15.52H15.256V19H14.08V10.492H17.176C17.952 10.492 18.584 10.732 19.072 11.212C19.56 11.692 19.804 12.292 19.804 13.012C19.804 13.74 19.56 14.34 19.072 14.812C18.584 15.284 17.952 15.52 17.176 15.52Z" fill="white"/>
</svg>
