<svg width="20" height="20" viewBox="0 0 20 20" fill="none" xmlns="http://www.w3.org/2000/svg">
<path fill-rule="evenodd" clip-rule="evenodd" d="M10.0007 9.99998C7.78366 9.99998 5.98166 8.20599 5.98166 5.99998C5.98166 3.79398 7.78366 1.99998 10.0007 1.99998C12.2177 1.99998 14.0197 3.79398 14.0197 5.99998C14.0197 8.20599 12.2177 9.99998 10.0007 9.99998ZM13.7767 10.673C14.6029 10.015 15.2401 9.14995 15.6234 8.16576C16.0067 7.18156 16.1223 6.11336 15.9587 5.06993C15.5617 2.44693 13.3697 0.347977 10.7227 0.0419769C7.07066 -0.381023 3.97266 2.44898 3.97266 5.99998C3.97266 7.88998 4.85266 9.57396 6.22466 10.673C2.85266 11.934 0.39066 14.895 0.00465958 18.891C-0.00883646 19.0311 0.0070636 19.1726 0.0513362 19.3063C0.0956088 19.4399 0.167284 19.5628 0.261778 19.6672C0.356272 19.7716 0.471504 19.855 0.600111 19.9123C0.728718 19.9696 0.86787 19.9995 1.00866 20C1.25546 20.002 1.49409 19.9118 1.67779 19.7469C1.86148 19.5821 1.97699 19.3546 2.00166 19.109C2.40466 14.646 5.83766 12 10.0007 12C14.1637 12 17.5967 14.646 17.9997 19.109C18.0243 19.3546 18.1398 19.5821 18.3235 19.7469C18.5072 19.9118 18.7459 20.002 18.9927 20C19.5887 20 20.0527 19.482 19.9957 18.891C19.6107 14.895 17.1487 11.934 13.7757 10.673" fill="#7A7C87"/>
</svg>
