<svg width="12" height="12" viewBox="0 0 12 12" fill="none" xmlns="http://www.w3.org/2000/svg">
<path d="M6 0C4.81331 0 3.65327 0.351894 2.66658 1.01118C1.67989 1.67047 0.910851 2.60754 0.456725 3.7039C0.00259973 4.80025 -0.11622 6.00665 0.115291 7.17054C0.346802 8.33443 0.918247 9.40352 1.75736 10.2426C2.59648 11.0818 3.66557 11.6532 4.82946 11.8847C5.99335 12.1162 7.19974 11.9974 8.2961 11.5433C9.39246 11.0891 10.3295 10.3201 10.9888 9.33342C11.6481 8.34672 12 7.18669 12 6C12 4.4087 11.3679 2.88258 10.2426 1.75736C9.11742 0.632141 7.5913 0 6 0ZM8.02364 7.24909C8.07476 7.2998 8.11534 7.36012 8.14303 7.42659C8.17072 7.49306 8.18498 7.56435 8.18498 7.63636C8.18498 7.70837 8.17072 7.77966 8.14303 7.84613C8.11534 7.9126 8.07476 7.97293 8.02364 8.02363C7.97293 8.07476 7.9126 8.11534 7.84613 8.14303C7.77966 8.17072 7.70837 8.18498 7.63636 8.18498C7.56436 8.18498 7.49306 8.17072 7.42659 8.14303C7.36013 8.11534 7.2998 8.07476 7.24909 8.02363L6 6.76909L4.75091 8.02363C4.7002 8.07476 4.63988 8.11534 4.57341 8.14303C4.50694 8.17072 4.43564 8.18498 4.36364 8.18498C4.29163 8.18498 4.22034 8.17072 4.15387 8.14303C4.0874 8.11534 4.02707 8.07476 3.97637 8.02363C3.92524 7.97293 3.88466 7.9126 3.85697 7.84613C3.82928 7.77966 3.81502 7.70837 3.81502 7.63636C3.81502 7.56435 3.82928 7.49306 3.85697 7.42659C3.88466 7.36012 3.92524 7.2998 3.97637 7.24909L5.23091 6L3.97637 4.75091C3.87365 4.6482 3.81595 4.50889 3.81595 4.36364C3.81595 4.21838 3.87365 4.07907 3.97637 3.97636C4.07908 3.87365 4.21838 3.81595 4.36364 3.81595C4.50889 3.81595 4.6482 3.87365 4.75091 3.97636L6 5.23091L7.24909 3.97636C7.3518 3.87365 7.49111 3.81595 7.63636 3.81595C7.78162 3.81595 7.92093 3.87365 8.02364 3.97636C8.12635 4.07907 8.18405 4.21838 8.18405 4.36364C8.18405 4.50889 8.12635 4.6482 8.02364 4.75091L6.76909 6L8.02364 7.24909Z" fill="#9F9F9F"/>
</svg>
